/* XPM */
static char *chart_pixels[] = {
" 55 38 6 1",
   "`  c black",
   "a  c yellow",
   "b  c green",
   "c  c None",
   "d  c magenta",
   "e  c blue",
"ccccccccccccccccccccccccccccccccccccccccccccccccccccccc",
"ccccccccccccccccccccccccccccccccccccccccccccccccccccccc",
"ccccccccccccccccccccccccccccccccccccccccccccccccccccccc",
"ccccccccccccccccccccccccccccccccccccccccccccccccccccccc",
"ccccccccccccccccccccccccccccccccccccccccccccccccccccccc",
"ccccccccccccccccccccccccccccccccccccccccccccccccccccccc",
"ccccccccccccccccccccccccccccccccccccccccccccccccccccccc",
"ccccccccccccccccccccccccccccccccccccccccccccccccccccccc",
"ccccccccccccccccccccccccccccccccccccccccccccccccccccccc",
"ccccccccccccccccccc`````````ccccccccccccccccccccccccccc",
"ccccccccccccccccccc`aaaaaaa`ccccccccccccccccccccccccccc",
"ccccccccccccccccccc`aaaaaaa`ccccccccccccccccccccccccccc",
"ccccccccccccccccccc`aaaaaaa`ccccccccccccccccccccccccccc",
"ccccccccccccccccccc`aaaaaaa`ccccccc`````````ccccccccccc",
"ccccccccccc`````````aaaaaaa`ccccccc`ddddddd`ccccccccccc",
"ccccccccccc`bbbbbbb`aaaaaaa`ccccccc`ddddddd`ccccccccccc",
"ccccccccccc`bbbbbbb`aaaaaaa`ccccccc`ddddddd`ccccccccccc",
"ccccccccccc`bbbbbbb`aaaaaaa`````````ddddddd`ccccccccccc",
"ccccccccccc`bbbbbbb`aaaaaaa`eeeeeee`ddddddd`ccccccccccc",
"ccccccccccc``````````````````````````````````cccccccccc",
"ccccccccccccccccccccccccccccccccccccccccccccccccccccccc",
"ccccccccccccccccccccccccccccccccccccccccccccccccccccccc",
"ccccc`cc`cccc`cc`cccc`cc`cccc`cc`cccccccccccccccccccccc",
"cccccccc`ccccccc`ccccccc`cccccc``cccccc``ccccccc`cccccc",
"ccccc`c```c`c`````c`c`````c`c`````c`cc````cccccc`cccccc",
"ccccc`cc`c`c```c`c`c```c`c`c```c```c`c```c`cccc``cccccc",
"ccccc`cc`c`````c`c`````c`c`````c`c```c`c```ccc````ccccc",
"ccccc`cc`c`cc``c`c`cc``c`c`cc````c`ccc`c```ccccc`cccccc",
"ccccc`cc`cc````c`c`````c`c```````````c```c`ccccc`cccccc",
"ccccccccccccccccccccccccccccccccccccccccccccccccccccccc",
"ccccccccccccccccccccccccccccccccccccccccccccccccccccccc",
"ccccccccccccccccccccccccccccccccccccccccccccccccccccccc",
"ccccccccccccccccccccccccccccccccccccccccccccccccccccccc",
"ccccccccccccccccccccccccccccccccccccccccccccccccccccccc",
"ccccccccccccccccccccccccccccccccccccccccccccccccccccccc",
"ccccccccccccccccccccccccccccccccccccccccccccccccccccccc",
"ccccccccccccccccccccccccccccccccccccccccccccccccccccccc",
"ccccccccccccccccccccccccccccccccccccccccccccccccccccccc"
};
