/* XPM */
static char *sld_pixels[] = {
"61 26 5 1",
   "`  c None",
   "a  c gray87",
   "b  c #cecece",
   "c  c #282828",
   "d  c gray35",
"`````````````````````````````````````````````````````````````",
"`````````````````````````````````````````````````````````````",
"`````````````````````````````````````````````````````````````",
"`````````````````````````````````````````````````````````````",
"`````````````````````````````````````````````````````````````",
"``ddddddddddddddddddddddddddddddddddddddddddddddddddddddddd``",
"``c`````````````````bbbbbbbbbbbbbbbbbbb```````````````````a``",
"``c`````````````````a``````````````````c``````````````````a``",
"``c`````````````````a```ac``ac``ac`````c``````````````````a``",
"``c`````````````````a```ac``ac``ac`````c``````````````````a``",
"``c`````````````````a```ac``ac``ac`````c``````````````````a``",
"``c`````````````````a```ac``ac``ac`````c``````````````````a``",
"``c`````````````````a```ac``ac``ac`````c``````````````````a``",
"``c`````````````````a```ac``ac``ac`````c``````````````````a``",
"``c`````````````````a```ac``ac``ac`````c``````````````````a``",
"``c`````````````````a```ac``ac``ac`````c``````````````````a``",
"``c`````````````````a``````````````````c``````````````````a``",
"``c`````````````````addddddddddddddddddc``````````````````a``",
"``aaaaaaaaaaaaaaaaaaaaaaaaaaaaaaaaaaaaaaaaaaaaaaaaaaaaaaaaa``",
"`````````````````````````````````````````````````````````````",
"`````````````````````````````````````````````````````````````",
"`````````````````````````````````````````````````````````````",
"`````````````````````````````````````````````````````````````",
"`````````````````````````````````````````````````````````````",
"`````````````````````````````````````````````````````````````",
"`````````````````````````````````````````````````````````````"
};
