#define top_width 20
#define top_height 20
static char top_bits[] = {
   0x00, 0x00, 0x00, 0x3f, 0x3f, 0x0f, 0x3f, 0x3f, 0x0f, 0x3f, 0x3f, 0x0f,
   0x3f, 0x3f, 0x0f, 0x3f, 0x3f, 0x00, 0x3f, 0x3f, 0x00, 0x00, 0x3f, 0x00,
   0x00, 0x3f, 0x00, 0x00, 0x3f, 0x00, 0x00, 0x3f, 0x00, 0x00, 0x3f, 0x00,
   0x00, 0x00, 0x00, 0x00, 0x00, 0x00, 0x00, 0x00, 0x00, 0x00, 0x00, 0x00,
   0x00, 0x00, 0x00, 0x00, 0x00, 0x00, 0x00, 0x00, 0x00, 0x00, 0x00, 0x00};
