#define warn_width 16
#define warn_height 16
static unsigned char warn_bits[] = 
{
   0x80, 0x03, 0xc0, 0x07, 0xc0, 0x07, 0xc0, 0x07, 0xc0, 0x07, 0xc0, 0x07,
   0x80, 0x03, 0x80, 0x03, 0x80, 0x03, 0x80, 0x03, 0x00, 0x01, 0x00, 0x01,
   0x00, 0x00, 0x80, 0x03, 0x80, 0x03, 0x80, 0x03
};
