#define q_width 12
#define q_height 12

static unsigned char q_bits[] =
{
    0xf8, 0x01, 0xfc, 0x03, 0x0c, 0x03, 0x0c, 0x03, 0x84, 0x03, 0xf0, 0x01,
    0xf0, 0x00, 0x30, 0x00, 0x30, 0x00, 0x00, 0x00, 0x70, 0x00, 0x70, 0x00
};
