#define bm1_width 16
#define bm1_height 16
static char bm1_bits[] = {
   0xff, 0xff, 0xff, 0xa8, 0x83, 0x8d, 0x3b, 0xad, 0x3b, 0xff, 0xbb, 0xfe,
   0xbb, 0xe0, 0x03, 0xc0, 0x3f, 0x80, 0x3f, 0x80, 0x3f, 0x80, 0x3f, 0x80,
   0x0f, 0x80, 0x73, 0xc0, 0xff, 0xe0, 0xff, 0xff};
