#define bottom_width 20
#define bottom_height 20
static char bottom_bits[] = {
   0x00, 0x00, 0x00, 0x00, 0x00, 0x00, 0x00, 0x00, 0x00, 0x00, 0x00, 0x00,
   0x00, 0x00, 0x00, 0x00, 0x00, 0x00, 0x00, 0x00, 0x00, 0x00, 0x3f, 0x00,
   0x00, 0x3f, 0x00, 0x00, 0x3f, 0x00, 0x00, 0x3f, 0x00, 0x00, 0x3f, 0x00,
   0x3f, 0x3f, 0x00, 0x3f, 0x3f, 0x00, 0x3f, 0x3f, 0x0f, 0x3f, 0x3f, 0x0f,
   0x3f, 0x3f, 0x0f, 0x3f, 0x3f, 0x0f, 0x3f, 0x3f, 0x0f, 0x00, 0x00, 0x00};
