/* XPM */
static char *butt_pixels[] = {
" 65 29 5 1",
   "`  c None",
   "a  c gray87",
   "b  c #cecece",
   "c  c #282828",
   "d  c gray35",
"`````````````````````````````````````````````````````````````````",
"`````````````````````````````````````````````````````````````````",
"``````bbbbbbbbbbbbbbbbbbbbbbbbbbbbbbbbbbbbbbbbbbbbbbbbbbb````````",
"``````abbbbbbbbbbbbbbbbbbbbbbbbbbbbbbbbbbbbbbbbbbbbbbbbbbc```````",
"``````aa````````````````````````````````````````````````cc```````",
"``````aa````````````````````````````````````````````````cc```````",
"``````aa````````````````````````````````````````````````cc```````",
"``````aa````````````````````````````````````````````````cc```````",
"``````aa````````````````````````````````````````````````cc```````",
"``````aa````````````````````````````````````````````````cc```````",
"``````aa````````````````````````````````````````````````cc```````",
"``````aa````````````````````````````````````````````````cc```````",
"``````aa````````````````````````````````````````````````cc```````",
"``````aa````````````````````````````````````````````````cc```````",
"``````aa````````````````````````````````````````````````cc```````",
"``````aa````````````````````````````````````````````````cc```````",
"``````aa````````````````````````````````````````````````cc```````",
"``````aa````````````````````````````````````````````````cc```````",
"``````aa````````````````````````````````````````````````cc```````",
"``````aa````````````````````````````````````````````````cc```````",
"``````aa````````````````````````````````````````````````cc```````",
"``````aa````````````````````````````````````````````````cc```````",
"``````aa````````````````````````````````````````````````cc```````",
"``````aaddddddddddddddddddddddddddddddddddddddddddddddddcc```````",
"``````addddddddddddddddddddddddddddddddddddddddddddddddddc```````",
"`````````````````````````````````````````````````````````````````",
"`````````````````````````````````````````````````````````````````",
"`````````````````````````````````````````````````````````````````",
"`````````````````````````````````````````````````````````````````"
};
