/* XPM */
static char *check_pixels[] = {
"51 31 5 1 ",
"`  c None   m None ",
"a  c gray87   m black ",
"b  c #cecece  m black ",
"c  c #282828  m black ",
"d  c gray35   m black ",
"```````````````````````````````````````````````````",
"```````````````````````````````````````````````````",
"```````````````````````````````````````````````````",
"```````````````````````````````````````````````````",
"```````````````````````````````````````````````````",
"```````````````````````````````````````````````````",
"```````````````````````````````````````````````````",
"```````````````````````````````````````````````````",
"```````````````````````````````````````````````````",
"```````````````ab``````````````````````````````````",
"``````````````aabb`````````````````````````````````",
"`````````````aa``bb````````````````````````````````",
"````````````aa````bb```````````````````````````````",
"```````````aa``````bb``````````````````````````````",
"``````````aa````````bb`````````````````````````````",
"`````````dd``````````cc````````````````````````````",
"``````````dd````````cc`````````````````````````````",
"```````````dd``````cc``````````````````````````````",
"````````````dd````cc```````````````````````````````",
"`````````````dd``cc````````````````````````````````",
"``````````````ddcc`````````````````````````````````",
"```````````````dc``````````````````````````````````",
"```````````````````````````````````````````````````",
"```````````````````````````````````````````````````",
"```````````````````````````````````````````````````",
"```````````````````````````````````````````````````",
"```````````````````````````````````````````````````",
"```````````````````````````````````````````````````",
"```````````````````````````````````````````````````",
"```````````````````````````````````````````````````",
"```````````````````````````````````````````````````"
};
