/* XPM */
static char *clock_pixels[] = {
"55 38 6 1",
   "`  c None",
   "a  c gray87",
   "b  c #cecece",
   "c  c #282828",
   "d  c #6d6d6d",
   "e  c gray35",
"```````````````````````````````````````````````````````",
"````````````````````````````b``````````````````````````",
"```````````````````````bbbbbbbbbbb`````````````````````",
"````````````````````bbbbbbbbdbbbbbbbb``````````````````",
"``````````````````bbbbbddddaddddddbbbbb````````````````",
"`````````````````bbbbdddddddddddddddbbbb```````````````",
"````````````````bbbdadddddddddddddadddbbb``````````````",
"```````````````bbbdddddddddddddddddddddbee`````````````",
"``````````````bbadddddddddddddddddddddddeee````````````",
"`````````````bbbdadddddadddddddddddddddddeee```````````",
"`````````````bbdddaadddaadddddddddddddddddee```````````",
"````````````bbddaddcadddacddddddddddddaddddee``````````",
"````````````bbddddddcaddaacddddddddddddddddee``````````",
"```````````bbbddddddddadaacdddddddddaaaadddeee`````````",
"```````````bbddddddddddaaeacddaaaaaaaaddddddee`````````",
"```````````bbdddddddddddcaaaaaeaaaadddccccddee`````````",
"```````````bbdddddddddddaaaaaaadccccccccddddee`````````",
"```````````bbdadddddddddddaaaccccccccdddadddee`````````",
"```````````bbdddddddddddddcacccccdddddddddddee`````````",
"```````````bbdddddddddddddddcccdddddddddddddee`````````",
"```````````bbddddddddddddddddcddddddddddddddee`````````",
"```````````bbdddddddddddddddddddddddddddddddee`````````",
"```````````bbdddddddddddddddddddddddddddddddee`````````",
"```````````bbdddddddddddddddddddddddddddddddee`````````",
"```````````bbbddadddddddddddddddddddddaddddeee`````````",
"````````````bbdddddddddddddddddddddddddddddee``````````",
"````````````bbdddddddddddddddddddddddddddddee``````````",
"`````````````bbdddddddddddddddddddddddddddee```````````",
"`````````````bbbdddddadddddddddddadddddddeee```````````",
"``````````````bbbdddddddddddddddddddddddeee````````````",
"```````````````bbedddddddddadddddddddddeee`````````````",
"````````````````eeedddddddddddddddddddeee``````````````",
"`````````````````eeeedddddddddddddddeeee```````````````",
"``````````````````eeeeedddddddddddeeeee````````````````",
"````````````````````eeeeeeeeeeeeeeeee``````````````````",
"```````````````````````eeeeeeeeeee`````````````````````",
"```````````````````````````````````````````````````````",
"```````````````````````````````````````````````````````"
};
