#define left_width 20
#define left_height 20
static char left_bits[] = {
   0xfe, 0x07, 0x00, 0xfe, 0x07, 0x00, 0xfe, 0x07, 0x00, 0xfe, 0x07, 0x00,
   0x00, 0x00, 0x00, 0x00, 0x00, 0x00, 0x00, 0x00, 0x00, 0xfe, 0xff, 0x0f,
   0xfe, 0xff, 0x0f, 0xfe, 0xff, 0x0f, 0xfe, 0xff, 0x0f, 0xfe, 0xff, 0x0f,
   0xfe, 0xff, 0x0f, 0x00, 0x00, 0x00, 0x00, 0x00, 0x00, 0x00, 0x00, 0x00,
   0xfe, 0xff, 0x01, 0xfe, 0xff, 0x01, 0xfe, 0xff, 0x01, 0xfe, 0xff, 0x01};
