/* XPM */
static char *lightb_pixels[] = {
"65 29 6 1 ",
"`  c None ",
"a  c gray87 ",
"b  c #cecece",
"c  c blue   ",
"d  c #282828",
"e  c gray35", 
"`````````````````````````````````````````````````````````````````",
"`````````````````````````````````````````````````````````````````",
"`````````````````````````````````````````````````````````````````",
"````bbbbbbbbbbbbbbbbbbbbbbbbbbbbbbbbbbbbbbbbbbbbbbbbbbbb`````````",
"````abbbbbbbbbbbbbbbbbbbbbbbbbbbbbbbbbbbbbbbbbbbbbbbbbbbd````````",
"````aa`````````````````````````````````````````````````dd````````",
"````aa`````````````````````````````````````````````````dd````````",
"````aa`````````````````````````````````````````````````dd````````",
"````aa```eeeeeeee``````````````````````````````````````dd````````",
"````aa```deeeeeea``````````````````````````````````````dd````````",
"````aa```ddccccaa``````````````````````````````````````dd````````",
"````aa```ddccccaa``````````````````````````````````````dd````````",
"````aa```ddccccaa``````````````````````````````````````dd````````",
"````aa```ddccccaa``````````````````````````````````````dd````````",
"````aa```ddccccaa``````````````````````````````````````dd````````",
"````aa```ddccccaa``````````````````````````````````````dd````````",
"````aa```ddccccaa``````````````````````````````````````dd````````",
"````aa```ddccccaa``````````````````````````````````````dd````````",
"````aa```ddccccaa``````````````````````````````````````dd````````",
"````aa```ddccccaa``````````````````````````````````````dd````````",
"````aa```ddaaaaaa``````````````````````````````````````dd````````",
"````aa```aaaaaaaa``````````````````````````````````````dd````````",
"````aa`````````````````````````````````````````````````dd````````",
"````aa`````````````````````````````````````````````````dd````````",
"````aa`````````````````````````````````````````````````dd````````",
"````aaeeeeeeeeeeeeeeeeeeeeeeeeeeeeeeeeeeeeeeeeeeeeeeeeedd````````",
"````aeeeeeeeeeeeeeeeeeeeeeeeeeeeeeeeeeeeeeeeeeeeeeeeeeeed````````",
"`````````````````````````````````````````````````````````````````",
"`````````````````````````````````````````````````````````````````"
};
