/* XPM */
static char *pos_pixels[] = {
"56 33 5 1",
   "`  c None",
   "a  c gray87",
   "b  c blue",
   "c  c #282828",
   "d  c gray35",
"````````````````````````````````````````````````````````",
"````````````````````````````````````````````````````````",
"````````````````````````````````````````````````````````",
"````````````````````````````````````````````````````````",
"````dddddddddddddddddddddddddddddddddddddddddddddddd````",
"````c``````````````````````````````````````````````a````",
"````c```````````````````````````````b``````````````a````",
"````c```````````````````````````````b``````````````a````",
"````c```````````````````````````````b``````````````a````",
"````c```````````````````````````````b``````````````a````",
"````c```````````````````````````````b``````````````a````",
"````c```````````````````````````````b``````````````a````",
"````c```````````````````````````````b``````````````a````",
"````c```````````````````````````````b``````````````a````",
"````c`bbbbbbbbbbbbbbbbbbbbbbbbbbbbbbbbbbbbbbbbbbbb`a````",
"````c```````````````````````````````b``````````````a````",
"````c```````````````````````````````b``````````````a````",
"````c```````````````````````````````b``````````````a````",
"````c```````````````````````````````b``````````````a````",
"````c```````````````````````````````b``````````````a````",
"````c```````````````````````````````b``````````````a````",
"````c```````````````````````````````b``````````````a````",
"````c```````````````````````````````b``````````````a````",
"````c```````````````````````````````b``````````````a````",
"````c```````````````````````````````b``````````````a````",
"````c```````````````````````````````b``````````````a````",
"````c```````````````````````````````b``````````````a````",
"````c```````````````````````````````b``````````````a````",
"````c``````````````````````````````````````````````a````",
"````aaaaaaaaaaaaaaaaaaaaaaaaaaaaaaaaaaaaaaaaaaaaaaaa````",
"````````````````````````````````````````````````````````",
"````````````````````````````````````````````````````````",
"````````````````````````````````````````````````````````"
};
