/* XPM */
static char *r3dbut_pixels[] = {
" 65 29 4 1",
"` c None",
"a c #cecece",
"b c blue",
"c c gray35",
"`````````````````````````````````````````````````````````````````",
"`````````````````````````````````````````````````````````````````",
"`````````````````````````````````````````````````````````````````",
"`````````````````````````````````````````````````````````````````",
"`````````````````````````````````````````````````````````````````",
"`````````````````````````````````````````````````````````````````",
"``````````````````````c``````````````````````````````````````````",
"```````````````````ccccccc```````````````````````````````````````",
"`````````````````ccccc`ccccc`````````````````````````````````````",
"````````````````ccc```````caa````````````````````````````````````",
"````````````````cc````b````aa````````````````````````````````````",
"```````````````cc```bbbbb```aa```````````````````````````````````",
"```````````````cc``bbbbbbb``aa```````````````````````````````````",
"```````````````cc``bbbbbbb``aa```````````````````````````````````",
"``````````````cc``bbbbbbbb``aa```````````````````````````````````",
"```````````````cc``bbbbbbb``aa```````````````````````````````````",
"```````````````cc``bbbbbbb``aa```````````````````````````````````",
"```````````````cc```bbbbb```aa```````````````````````````````````",
"````````````````cc`````````aa````````````````````````````````````",
"````````````````caa```````aaa````````````````````````````````````",
"`````````````````aaaaaaaaaaa`````````````````````````````````````",
"```````````````````aaaaaaa```````````````````````````````````````",
"`````````````````````````````````````````````````````````````````",
"`````````````````````````````````````````````````````````````````",
"`````````````````````````````````````````````````````````````````",
"`````````````````````````````````````````````````````````````````",
"`````````````````````````````````````````````````````````````````",
"`````````````````````````````````````````````````````````````````",
"`````````````````````````````````````````````````````````````````"
};
