/* XPM */
static char *scb_pixels[] = {
" 60 26 5 1",
   "`   c None",
   "a   c gray87",
   "b   c #cecece",
   "c   c #282828",
   "d   c gray35",
"````````````````````````````````````````````````````````````",
"````````````````````````````````````````````````````````````",
"````````````````````````````````````````````````````````````",
"````````````````````````````````````````````````````````````",
"````````````````````````````````````````````````````````````",
"````````````````````````````````````````````````````````````",
"`ddddddddddddddddddddddddddddddddddddddddddddddddddddddddd``",
"`c```````````````````````````````````````````````````````a``",
"`c`````````bc````````bbbbbbbbbbbbbbbb`````````ac`````````a``",
"`c````````bbc````````a```````````````c````````acc````````a``",
"`c``````bb``c````````a`ac``ac``ac````c````````a``cc``````a``",
"`c````bb````c````````a`ac``ac``ac````c````````a````cc````a``",
"`c``bb``````c````````a`ac``ac``ac````c````````a``````cc``a``",
"`c`dd```````c````````a`ac``ac``ac````c````````a```````d``a``",
"`c```dd`````c````````a`ac``ac``ac````c````````a`````dd```a``",
"`c`````dd```c````````a`ac``ac``ac````c````````a```dd`````a``",
"`c```````dd`c````````a```````````````c````````a`dd```````a``",
"`c`````````d`````````adddddddddddddddc````````dd`````````a``",
"`c```````````````````````````````````````````````````````a``",
"`aaaaaaaaaaaaaaaaaaaaaaaaaaaaaaaaaaaaaaaaaaaaaaaaaaaaaaaaa``",
"````````````````````````````````````````````````````````````",
"````````````````````````````````````````````````````````````",
"````````````````````````````````````````````````````````````",
"````````````````````````````````````````````````````````````",
"````````````````````````````````````````````````````````````",
"````````````````````````````````````````````````````````````"
};
