/* XPM */
static char *tabfolder_pixels[] = {
"59 35 6 1",
   "`  c black",
   "a  c None",
   "b  c gray87",
   "c  c #cecece",
   "d  c #282828",
   "e  c gray35",
"aaaaaaaaaaaaaaaaaaaaaaaaaaaaaaaaaaaaaaaaaaaaaaaaaaaaaaaaaaa",
"aaaaaaaaaaaaaaaaaaaaaaaaaaaaaaaaaaaaaaaaaaaaaaaaaaaaaaaaaaa",
"aaaaccccccccccccccaeaacccccccccccccccaeaaaaaaaaaaaaaaaaaaaa",
"aaabaaaaaaaaaaaaaaaaebaaaaaa```aaaaaaaaeaaaaaaaaaaaaaaaaaaa",
"aaabaaaaaaa`aaaaaaaaebaaaaaaa`a`aaaaaaaeaaaaaaaaaaaaaaaaaaa",
"aaabaaaaaa`a`aaaaaaaebaaaaaaa``aaaaaaaaeaaaaaaaaaaaaaaaaaaa",
"aaabaaaaaa```aaaaaaaebaaaaaaa`a`aaaaaaaeaaaaaaaaaaaaaaaaaaa",
"aaabaaaaaa`a`aaaaaaaebaaaaaa```aaaaaaaaeaaaaaaaaaaaaaaaaaaa",
"aaabaaaaa``a``aaaaaaebaaaaaaaaaaaaaaaaaeaaaaaaaaaaaaaaaaaaa",
"aaabaaaaaaaaaaaaaaaaebaaaaaaaaaaaaaaaaaeaaaaaaaaaaaaaaaaaaa",
"aacccccccccccccccccccbaaaaaaaaaaaaaaaaaeccccccccccccccccaaa",
"aabaaaaaaaaaaaaaaaaaabaaaaaaaaaaaaaaaaaeaaaaaaaaaaaaaaaadaa",
"aabaaaaaaaaaaaaaaaaaaaaaaaaaaaaaaaaaaaaaaaaaaaaaaaaaaaaadaa",
"aabaaaaaaaaaaaaaaaaaaaaaaaaaaaaaaaaaaaaaaaaaaaaaaaaaaaaadaa",
"aabaaaaaaaaaaaaaaaaaaaaaaaaaaaaaaaaaaaaaaaaaaaaaaaaaaaaadaa",
"aabaaaaaaaaaaaaaaaaaaaaaaaaaaaaaaaaaaaaaaaaaaaaaaaaaaaaadaa",
"aabaaaaaaaaaaaaaaaaaaaaaaaaaaaaaaaaaaaaaaaaaaaaaaaaaaaaadaa",
"aabaaaaaaaaaaaaaaaaaaaaaaaaaaaaaaaaaaaaaaaaaaaaaaaaaaaaadaa",
"aabaaaaaaaaaaaaaaaaaaaaaaaaaaaaaaaaaaaaaaaaaaaaaaaaaaaaadaa",
"aabaaaaaaaaaaaaaaaaaaaaaaaaaaaaaaaaaaaaaaaaaaaaaaaaaaaaadaa",
"aabaaaaaaaaaaaaaaaaaaaaaaaaaaaaaaaaaaaaaaaaaaaaaaaaaaaaadaa",
"aabaaaaaaaaaaaaaaaaaaaaaaaaaaaaaaaaaaaaaaaaaaaaaaaaaaaaadaa",
"aabaaaaaaaaaaaaaaaaaaaaaaaaaaaaaaaaaaaaaaaaaaaaaaaaaaaaadaa",
"aabaaaaaaaaaaaaaaaaaaaaaaaaaaaaaaaaaaaaaaaaaaaaaaaaaaaaadaa",
"aabaaaaaaaaaaaaaaaaaaaaaaaaaaaaaaaaaaaaaaaaaaaaaaaaaaaaadaa",
"aabaaaaaaaaaaaaaaaaaaaaaaaaaaaaaaaaaaaaaaaaaaaaaaaaaaaaadaa",
"aabaaaaaaaaaaaaaaaaaaaaaaaaaaaaaaaaaaaaaaaaaaaaaaaaaaaaadaa",
"aabaaaaaaaaaaaaaaaaaaaaaaaaaaaaaaaaaaaaaaaaaaaaaaaaaaaaadaa",
"aabaaaaaaaaaaaaaaaaaaaaaaaaaaaaaaaaaaaaaaaaaaaaaaaaaaaaadaa",
"aabaaaaaaaaaaaaaaaaaaaaaaaaaaaaaaaaaaaaaaaaaaaaaaaaaaaaadaa",
"aabaaaaaaaaaaaaaaaaaaaaaaaaaaaaaaaaaaaaaaaaaaaaaaaaaaaaadaa",
"aabaaaaaaaaaaaaaaaaaaaaaaaaaaaaaaaaaaaaaaaaaaaaaaaaaaaaadaa",
"aabeeeeeeeeeeeeeeeeeeeeeeeeeeeeeeeeeeeeeeeeeeeeeeeeeeeeedaa",
"aaaaaaaaaaaaaaaaaaaaaaaaaaaaaaaaaaaaaaaaaaaaaaaaaaaaaaaaaaa",
"aaaaaaaaaaaaaaaaaaaaaaaaaaaaaaaaaaaaaaaaaaaaaaaaaaaaaaaaaaa"
};
