/* XPM */
static char *twheel[] = {
/* width height num_colors chars_per_pixel */
"    66    28        9            1",
/* colors */
". c #000000",
"# c #bebebe",
"a c #a1a1a1",
"b c #cecece",
"c c #282828",
"d c #595959",
"e c #dedede",
"f c #aeaeae",
"g c #959595",
/* pixels */
"aaaaaaaaaaaaaaaaaaaaaaaaaaaaaaaaaaaaaaaaaaaaaaaaaaaaaaaaaaaaaaaaaa",
"aaaaaaaaaaaaaaaaaaaaaaaaaaaaaaaaaaaaaaaaaaaaaaaaaaaaaaaaaaaaaaaaaa",
"aaaaaaaaaaaaaaaaaaaaaaaaaaaaaaaaaaaaaaaaaaaaaaaaaaaaaaaaaaaaaaaaaa",
"aaaaaaaaaaaaaaaaaaaaaaaaaaaaaaaaaaaaaaaaaaaaaaaaaaaaaaaaaaaaaaaaaa",
"aaaaaaaaaaaaaaaaaaaaaaaaaaaaaaaaaaaaaaaaaaaaaaaaaaaaaaaaaaaaaaaaaa",
"aaaaaaaaaaaaaaaaaaaaaaaaaaaaaaaaaaaaaaaaaaaaaaaaaaaaaaaaaaaaaaaaaa",
"aaaaa........................................................aaaaa",
"aaaaa.aaaaaaaaaaaaaaaaaaaaaaaaaaaaaaaaaaaaaaaaaaaaaaaaaaaaaa.aaaaa",
"aaaaa.aaccc...........................................cccaaa.aaaaa",
"aaaaa.aaccc...........................................cccgaa.aaaaa",
"aaaaa.aacccgggggbbbbbbbbbbbbbbbbbbbbbbbbbbbbbbbbbbbgggcccgaa.aaaaa",
"aaaaa.aacccgdg#gdgg#gdaa#adaffefcfffefcaaa#adag#gdg#gdcccgaa.aaaaa",
"aaaaa.aacccgdg#gdgg#gdaa#adaffefcfffefcaaa#adag#gdg#gdcccgaa.aaaaa",
"aaaaa.aacccgdg#gdgg#gdaa#adaffefcfffefcaaa#adag#gdg#gdcccgaa.aaaaa",
"aaaaa.aacccgdg#gdgg#gdaa#adaffefcfffefcaaa#adag#gdg#gdcccgaa.aaaaa",
"aaaaa.aacccgdg#gdgg#gdaa#adaffefcfffefcaaa#adag#gdg#gdcccgaa.aaaaa",
"aaaaa.aacccgdg#gdgg#gdaa#adaffefcfffefcaaa#adag#gdg#gdcccgaa.aaaaa",
"aaaaa.aacccgdg#gdgg#gdaa#adaffefcfffefcaaa#adag#gdg#gdcccgaa.aaaaa",
"aaaaa.aacccgdg#gdgg#gdaa#adaffefcfffefcaaa#adag#gdg#gdcccgaa.aaaaa",
"aaaaa.aacccgg.........................................cccgaa.aaaaa",
"aaaaa.aaccc...........................................cccgaa.aaaaa",
"aaaaa.aa.................................................aaa.aaaaa",
"aaaaa.aaaaaaaaaaaaaaaaaaaaaaaaaaaaaaaaaaaaaaaaaaaaaaaaaaaaaa.aaaaa",
"aaaaa........................................................aaaaa",
"aaaaaaaaaaaaaaaaaaaaaaaaaaaaaaaaaaaaaaaaaaaaaaaaaaaaaaaaaaaaaaaaaa",
"aaaaaaaaaaaaaaaaaaaaaaaaaaaaaaaaaaaaaaaaaaaaaaaaaaaaaaaaaaaaaaaaaa",
"aaaaaaaaaaaaaaaaaaaaaaaaaaaaaaaaaaaaaaaaaaaaaaaaaaaaaaaaaaaaaaaaaa",
"aaaaaaaaaaaaaaaaaaaaaaaaaaaaaaaaaaaaaaaaaaaaaaaaaaaaaaaaaaaaaaaaaa"
};
