#define vcenter_width 20
#define vcenter_height 20
static char vcenter_bits[] = {
   0x00, 0x00, 0x00, 0x00, 0x00, 0x00, 0x00, 0x00, 0x00, 0x00, 0x00, 0x00,
   0x80, 0x1f, 0x00, 0x80, 0x1f, 0x00, 0x9f, 0x1f, 0x00, 0x9f, 0x9f, 0x0f,
   0x9f, 0x9f, 0x0f, 0x9f, 0x9f, 0x0f, 0x9f, 0x9f, 0x0f, 0x9f, 0x9f, 0x0f,
   0x9f, 0x9f, 0x0f, 0x9f, 0x1f, 0x00, 0x80, 0x1f, 0x00, 0x80, 0x1f, 0x00,
   0x00, 0x00, 0x00, 0x00, 0x00, 0x00, 0x00, 0x00, 0x00, 0x00, 0x00, 0x00};
