/* XPM */
static char *xyplot_pixels[] = {
"55 29 3 1",
   "`  c black",
   "a  c None",
   "b  c blue",
"aaaaaaaaaaaaaaaaaaaaaaaaaaaaaaaaaaaaaaaaaaaaaaaaaaaaaaa",
"aa```````````````````````````````````````````````````aa",
"aa`aaaaaaaaaaaaaaaaaaaaaaaaaaaaaaaaaaaaaaaaaaaaaaaaa`aa",
"aa`aaaaaaaaaaaaaaaaaaaaaaaaaaaaaaaaaaaaaaaaaaaaaaaaa`aa",
"aa`aaaaaaaaaaaaaaaaaaaaaaaaaaaaaaaaaaaaaaaaaaaaaaaaa`aa",
"aa`aaaabaaaaaaabaaaaaaaaaaaaaaabaaaaaaabaaaaaaaaaaaa`aa",
"aa`aaaabbaaaaabbaaaaaaaaaaaaaaabbaaaaabbaaaaaaaaaaaa`aa",
"aa`aaaabbaaaaababaaaaaaaaaaaaaabbaaaaababaaaaaaaaaaa`aa",
"aa`aaabaabaaabaabaaaaaaaaaaaaabaabaaabaabaaaaaaaaaaa`aa",
"aa`aaabaabaaabaabaaaaaaaaaaaaabaabaaabaabaaaaaaaaaaa`aa",
"aa`aaaaaabaaabaabaaaaaaaaaaaaabaabaaabaabaaaaaaaaaaa`aa",
"aa`aaaaaabaaabaabaaaaaaaaaaaaabaabaaabaabaaaaaaaaaaa`aa",
"aa`aaaaaabaaabaaabaaaaaaaaaaabaaabaaabaabaaaaaaaaaaa`aa",
"aa`aaaaaaabaabaaabaaaaaaaaaaabaaaabaabaabaaaaaaaaaaa`aa",
"aa`aaaaaaababaaaabaaaaaaaaaaabaaaababaaaabaaaaaaaaaa`aa",
"aa`aaaaaaababaaaabaaaaaaaaaaabaaaababaaaabaaaaaaaaaa`aa",
"aa`aaaaaaababaaaaabaaaaaaaaabaaaaababaaaabaaaaaaaaaa`aa",
"aa`aaaaaaababaaaaabaaaaaaaaabaaaaababaaaabaaaaaaaaaa`aa",
"aa`aaaaaaabbbaaaaabaaaaaaaaabaaaaabbbaaaabaaaaaaaaaa`aa",
"aa`aaaaaaaaaaaaaaabaaaaaaaaabaaaaaaaaaaaabaaaaaaaaaa`aa",
"aa`aaaaaaaaaaaaaaabaaaaaaaaabaaaaaaaaaaaaabaaaaaaaaa`aa",
"aa`aaaaaaaaaaaaaaaababaaabaabaaaaaaaaaaaaababaaaabaa`aa",
"aa`aaaaaaaaaaaaaaaabbabaabbbaaaaaaaaaaaaaababbaabaaa`aa",
"aa`aaaaaaaaaaaaaaaabbabbbabbaaaaaaaaaaaaaaabaabbaaaa`aa",
"aa`aaaaaaaaaaaaaaaabaaaaaaabaaaaaaaaaaaaaaabaaaaaaaa`aa",
"aa`aaaaaaaaaaaaaaaaaaaaaaaaaaaaaaaaaaaaaaaaaaaaaaaaa`aa",
"aa`aaaaaaaaaaaaaaaaaaaaaaaaaaaaaaaaaaaaaaaaaaaaaaaaa`aa",
"aa```````````````````````````````````````````````````aa",
"aaaaaaaaaaaaaaaaaaaaaaaaaaaaaaaaaaaaaaaaaaaaaaaaaaaaaaa"
};
