/* XPM */
char * test_xpm[] = {
"30 30 2 1",
" 	c #CF3CC71BC71B",
".	c #51445144FFFF",
"                              ",
"                              ",
"                              ",
"                              ",
"                              ",
"                              ",
"                              ",
"                              ",
"                              ",
"                              ",
"                              ",
"    .               .         ",
"   ....  ..    ... ....       ",
"    .   .  .  .  .  .         ",
"    .   ....  ..    .         ",
"    .   .       ..  .         ",
"    .   ..  . .  .  .         ",
"     ..  ...  ...    ..       ",
"                              ",
"                              ",
"                              ",
"                              ",
"                              ",
"                              ",
"                              ",
"                              ",
"                              ",
"                              ",
"                              ",
"                              "};


