/* XPM */
static char * xterm [] = {
/* xterm pixmap
 * width height ncolors chars_per_pixel */
"32 32 4 1",
/* pixels */
" 	s grey90 c grey90     g4 grey90",
".	m black	c black       g4 black",
"X	m white	c papayawhip  g4 grey80",
"o	m white	c gray50      g4 grey50",
"                                ",
"       ....................     ",
"      .XXXXXXXXXXXXXXXXXXXX..   ",
"      .XXX..............XXX.X.  ",
"      .XX.oooooooooooooo.XX.XX. ",
"      .X.oooooooooooooooo.X.XX. ",
"      .X.oooooooooooooooo.X.XX. ",
"      .X.oooooooooooooooo.X.XX. ",
"      .X.oooooooooooooooo.X.XX. ",
"      .X.oooooooooooooooo.X.XX. ",
"      .X.oooooooooooooooo.X.XX. ",
"      .X.oooooooooooooooo.X.XX. ",
"      .X.oooooooooooooooo.X.X.  ",
"      .X.oooooooooooooooo.X.X.  ",
"     ..XX.oooooooooooooo.XX..   ",
"   .. .XXX..............XXX..   ",
"  .   .XXXXXXXXXXXXXXXXXXXX.    ",
"  .    ....................     ",
"  .          .XXXXXX.           ",
"  .          .XXXXXX.           ",
"  .   .......XXXXXXXX.......... ",
"  .  .XXXXXXXXXXXXXXXXXXXXXXXX. ",
"  .  .........................  ",
"  .                             ",
"  . ........................... ",
"  ..XXXXXXXXXXXXXXXXXXXXXXXXX.  ",
"   .XX.X.X..X.X..X.X.X.X..XX.   ",
"  .XXXXXXXXXXXXXXXXXXXXXXXX.    ",
"  .X..X..X..............XXX.    ",
" .XXXXXXXXXXXXXXXXXXXXXXXX.     ",
" ..........................     ",
"                                "};
