/* XPM */
static char *box_pixels[] = {
"54 36 6 1",
   "` c black",
   "a c None",
   "b c gray87",
   "c c #cecece",
   "d c #282828",
   "e c gray35",
"aaaaaaaaaaaaaaaaaaaaaaaaaaaaaaaaaaaaaaaaaaaaaaaaaaaaaa",
"aaaaaaaaaaaaaaaaaaaaaaaaaaaaaaaaaaaaaaaaaaaaaaaaaaaaaa",
"aaaaaaaaaaaaaaaaaaaaaaaaaaaaaaaaaaaaaaaaaaaaaaaaaaaaaa",
"aaaaaaaaaaaaaaaaaaaaaaaaaaaaaaaaaaaaaaaaaaaaaaaaaaaaaa",
"aaaaaaaaaaaaaaaaaaaaaaaaaaaaaaaaaaaaaaaaaaaaaaaaaaaaaa",
"aaaaaaaaaaaaaaaaaaaaaaaaaaaaaaaaaaaaaaaaaaaaaaaaaaaaaa",
"aaaaaacccccccccccccccccccccccccccccccccccccccccaaaaaaa",
"aaaaaabccccccccccccccccccccccccccccccccccccccccdaaaaaa",
"aaaaaabbaaaaaaaaaaaaaaaaaaaaaaaaaaaaaaaaaaaaaaddaaaaaa",
"aaaaaabbaaaaaaaaaaaaaaaaaaaaaaaaaaaaaaaaaaaaaaddaaaaaa",
"aaaaaabbaaaaaaaaaaaaaaaaaaaaaaaaaaaaaaaaaaaaaaddaaaaaa",
"aaaaaabbaaaaaaaaaaaaaaaaaaaaaaaaaaaaaaaaaaaaaaddaaaaaa",
"aaaaaabbaaaaaaaaaaaaaaaaaaaaaaaaaaaaaaaaaaaaaaddaaaaaa",
"aaaaaabbaaaaaaaaaaaaaaaaaaaaaaaaaaaaaaaaaaaaaaddaaaaaa",
"aaaaaabbaaaaaaaaaa`aaaaaaaaaaaaaaaaaaaaaaaaaaaddaaaaaa",
"aaaaaabbaaaaaaaaaa`aaaaaaaaaaaaaaaaaaaaaaaaaaaddaaaaaa",
"aaaaaabbaaaaaaaaaa`a``aaa```aa`aaa`aaaaaaaaaaaddaaaaaa",
"aaaaaabbaaaaaaaaaa``aa`a`aaa`aa`a`aaaaaaaaaaaaddaaaaaa",
"aaaaaabbaaaaaaaaaa`aaa`a`aaa`aaa`aaaaaaaaaaaaaddaaaaaa",
"aaaaaabbaaaaaaaaaa`aaa`a`aaa`aa`a`aaaaaaaaaaaaddaaaaaa",
"aaaaaabbaaaaaaaaaa``aa`a`aaa`a`aaa`aaaaaaaaaaaddaaaaaa",
"aaaaaabbaaaaaaaaaa`a``aaa```aa`aaa`aaaaaaaaaaaddaaaaaa",
"aaaaaabbaaaaaaaaaaaaaaaaaaaaaaaaaaaaaaaaaaaaaaddaaaaaa",
"aaaaaabbaaaaaaaaaaaaaaaaaaaaaaaaaaaaaaaaaaaaaaddaaaaaa",
"aaaaaabbaaaaaaaaaaaaaaaaaaaaaaaaaaaaaaaaaaaaaaddaaaaaa",
"aaaaaabbaaaaaaaaaaaaaaaaaaaaaaaaaaaaaaaaaaaaaaddaaaaaa",
"aaaaaabbaaaaaaaaaaaaaaaaaaaaaaaaaaaaaaaaaaaaaaddaaaaaa",
"aaaaaabbaaaaaaaaaaaaaaaaaaaaaaaaaaaaaaaaaaaaaaddaaaaaa",
"aaaaaabbaaaaaaaaaaaaaaaaaaaaaaaaaaaaaaaaaaaaaaddaaaaaa",
"aaaaaabbeeeeeeeeeeeeeeeeeeeeeeeeeeeeeeeeeeeeeeddaaaaaa",
"aaaaaabeeeeeeeeeeeeeeeeeeeeeeeeeeeeeeeeeeeeeeeedaaaaaa",
"aaaaaaaaaaaaaaaaaaaaaaaaaaaaaaaaaaaaaaaaaaaaaaaaaaaaaa",
"aaaaaaaaaaaaaaaaaaaaaaaaaaaaaaaaaaaaaaaaaaaaaaaaaaaaaa",
"aaaaaaaaaaaaaaaaaaaaaaaaaaaaaaaaaaaaaaaaaaaaaaaaaaaaaa",
"aaaaaaaaaaaaaaaaaaaaaaaaaaaaaaaaaaaaaaaaaaaaaaaaaaaaaa",
"aaaaaaaaaaaaaaaaaaaaaaaaaaaaaaaaaaaaaaaaaaaaaaaaaaaaaa"
};
