/* XPM */
static char *br_pixels[] = {
"54 54 6 1",
   "`  c black",
   "a  c None",
   "b  c gray87",
   "c  c #cecece",
   "d  c #282828",
   "e  c gray35",
"aaaaaaaaaaaaaaaaaaaaaaaaaaaaaaaaaaaaaaaaaaaaaaaaaaaaaa",
"aaaaaaaaaaaaaaaaaaaaaaaaaaaaaaaaaaaaaaaaaaaaaaaaaaaaaa",
"aaeeeeeeeeeeeeeeeeeeeeeeeeeeeeeeeeeeeeeeeeeeeeeeeeeeaa",
"aadaaaaaaaaaaaaaaaaaaaaaaaaaaaaaaaaaaaaaabdaaaaaaaabaa",
"aadaaaaa`aaaaaaaaaaaaaaaaaaaaaaaaaaa`aaaabdaaaaeaaabaa",
"aadaaaaa```aa`a`a``aa`a`a`aa`aa`a`a``aaaabdaaabeaaabaa",
"aadaaaaa`aa`a``a`aa`a`a`a`a`a`a``aaa`aaaabdaaabaeaabaa",
"aadaaaaa`aa`a`aa`aa`a`a`a`a```a`aaaa`aaaabdaabaaeaabaa",
"aadaaaaa`aa`a`aa`aa`aa`a`aa`aaa`aaaa`aaaabdaabaaaeabaa",
"aadaaaaa```aa`aaa``aaa`a`aaa``a`aaaa`aaaabdaeeeeeaabaa",
"aadaaaaaaaaaaaaaaaaaaaaaaaaaaaaaaaaaaaaaabdaaaaaaaabaa",
"aadaaaaaaaaaaaaaaaaaaaaaaaaaaaaaaaaaaaaaabdacccccaabaa",
"aadaaaaaaaaaaaaaaaaaaaaaaaaaaaaaaaaaaaaaabdabaaaadabaa",
"aadaaaaa`aaaaaaaaaaaaaaaaaaaaaaaaaaaaaaaabdabaaaadabaa",
"aadaaaaa`aaaaaaaaaaaaaaaaaaaaaaaaaaaaaa``bdabaaaadabaa",
"aadaaaaa```aa`a`a``aa`a`a`aa``aa`aa`a``aabdabaaaadabaa",
"aadaaaaa`aa`a``a`aa`a`a`a`a`aaa`a`a``aaaabdabaaaadabaa",
"aadaaaaa`aa`a`aa`aa`a`a`a`aa``a```a`aaaa`bdababbadabaa",
"aadaaaaa`aa`a`aa`aa`aa`a`aaaa`a`aaa`aaa`abdabaddadabaa",
"aadaaaaa```aa`aaa``aaa`a`aa``aaa``a`aa```bdabaaaadabaa",
"aadaaaaaaaaaaaaaaaaaaaaaaaaaaaaaaaaaaaaaabdabaaaadabaa",
"aadaaaaaaaaaaaaaaaaaaaaaaaaaaaaaaaaaaaaaabdababbadabaa",
"aadaaaaaaaaaaaaaaaaaaaaaaaaaaaaaaaaaaaaaabdabaddadabaa",
"aadaaaaa`aaaaaaaaaaaaaaaaaaaaaaaaaaaaaaaabdabaaaadabaa",
"aadaaaaa`aaaaaaaaaaaaaaaaaaaaaaaaaaaaaa``bdabaaaadabaa",
"aadaaaaa```aa`a`a``aa`a`a`aa``aa`aa`a`aaabdababbadabaa",
"aadaaaaa`aa`a``a`aa`a`a`a`a`aaa`a`a``aa``bdabaddadabaa",
"aadaaaaa`aa`a`aa`aa`a`a`a`aa``a```a`aaaaabdabaaaadabaa",
"aadaaaaa`aa`a`aa`aa`aa`a`aaaa`a`aaa`aaaaabdabaaaadabaa",
"aadaaaaa```aa`aaa``aaa`a`aa``aaa``a`aaa``bdabaaaadabaa",
"aadaaaaaaaaaaaaaaaaaaaaaaaaaaaaaaaaaaaaaabdabaaaadabaa",
"aadaaaaaaaaaaaaaaaaaaaaaaaaaaaaaaaaaaaaaabdabaaaadabaa",
"aadaaaaaaaaaaaaaaaaaaaaaaaaaaaaaaaaaaaaaabdabeeeedabaa",
"aadaaaaa`aaaaaaaaaaaaaaaaaaaaaaaaaaaaaaaabdaaaaaaaabaa",
"aadaaaaa`aaaaaaaaaaaaaaaaaaaaaaaaaaaaaaa`bdacccccaabaa",
"aadaaaaa```aa`a`a``aa`a`a`aa``aa`aa`a`aa`bdaabaaadabaa",
"aadaaaaa`aa`a``a`aa`a`a`a`a`aaa`a`a``aa``bdaabaadaabaa",
"aadaaaaa`aa`a`aa`aa`a`a`a`aa``a```a`aa```bdaaabadaabaa",
"aadaaaaa`aa`a`aa`aa`aa`a`aaaa`a`aaa`aaaa`bdaaabdaaabaa",
"aadaaaaa```aa`aaa``aaa`a`aa``aaa``a`aaaa`bdaaaadaaabaa",
"aadaaaaaaaaaaaaaaaaaaaaaaaaaaaaaaaaaaaaaabdaaaaaaaabaa",
"aabbbbbbbbbbbbbbbbbbbbbbbbbbbbbbbbbbbbbbbbbbbbbbbbbbaa",
"aaeeeeeeeeeeeeeeeeeeeeeeeeeeeeeeeeeeeeeeeeaaaaaaaaaaaa",
"aadaaaaaaaaaaaaaaaaaaaaaaaaaaaaaaaaaaaaaabaaaaaaaaaaaa",
"aadaaaaaadacccccccccccccccccccccaabaaaaaabaaaaaaaaaaaa",
"aadaaaaccdabaaaaaaaaaaaaaaaaaaaadabddaaaabaaaaaaaaaaaa",
"aadaaccaadabaaaabdaabdaabdaaaaaadabaaddaabaaaaaaaaaaaa",
"aadaeeaaadabaaaabdaabdaabdaaaaaadabaaaeaabaaaaaaaaaaaa",
"aadaaaeeadabaaaaaaaaaaaaaaaaaaaadabaeeaaabaaaaaaaaaaaa",
"aadaaaaaeaabeeeeeeeeeeeeeeeeeeeedaeeaaaaabaaaaaaaaaaaa",
"aadaaaaaaaaaaaaaaaaaaaaaaaaaaaaaaaaaaaaaabaaaaaaaaaaaa",
"aabbbbbbbbbbbbbbbbbbbbbbbbbbbbbbbbbbbbbbbbaaaaaaaaaaaa",
"aaaaaaaaaaaaaaaaaaaaaaaaaaaaaaaaaaaaaaaaaaaaaaaaaaaaaa",
"aaaaaaaaaaaaaaaaaaaaaaaaaaaaaaaaaaaaaaaaaaaaaaaaaaaaaa"
};
