/* XPM */
static char *cnt_pixels[] = {
"64 27 7 1",
   "`   c black",
   "a   c None",
   "b   c gray87",
   "c   c #cecece",
   "d   c blue",
   "e   c #282828",
   "f   c gray35",
"aaaaaaaaaaaaaaaaaaaaaaaaaaaaaaaaaaaaaaaaaaaaaaaaaaaaaaaaaaaaaaaa",
"aaaaaaaaaaaaaaaaaaaaaaaaaaaaaaaaaaaaaaaaaaaaaaaaaaaaaaaaaaaaaaaa",
"aaaaaaaaaaaaaaaaaaaaaaaaaaaaaaaaaaaaaaaaaaaaaaaaaaaaaaaaaaaaaaaa",
"aaaaaaaaaaaaaaaaaaaaaaaaaaaaaaaaaaaaaaaaaaaaaaaaaaaaaaaaaaaaaaaa",
"aaaaaaaaaaaaaaaaaaaaaaaaaaaaaaaaaaaaaaaaaaaaaaaaaaaaaaaaaaaaaaaa",
"cccccccccacccccccccafffffffffffffffffffffffcccccccccacccccccccaa",
"baaaaaaaaebaaaaaaaaeeaaaaaaaaaaaaaaaaaaaaabbaaaaaaaaebaaaaaaaaea",
"baaaaaaaaebaaaaaaaaeeaaaaaaaaaaaaaaaaaaaaabbaaaaaaaaebaaaaaaaaea",
"baaaaaaaaebaaaaaaaaeeaaaaaaaaaaaaaaaaaaaaabbaaaaaaaaebaaaaaaaaea",
"baaaaaaaaebaaaaaaaaeeaaaaaa``aaaaa``aaaaaabbaaaaaaaaebaaaaaaaaea",
"baaa``aaaebaaaaa`aaeeaaaaa`aa`aaaaaa`aaaaabbaaa`aaaaebaa``aaaaea",
"baa```aaaebaaaa``aaeeaaaaa`aa`aaaa``aaaaaabbaaa``aaaebaa```aaaea",
"ba`d``aaaebaaa`d`aaeeaaaaa`aa`aaaaaa`aaaaabbaaa`d`aaebaa``d`aaea",
"baa```aaaebaaaa``aaeeaaaaa`aa`aaaaaa`aaaaabbaaa``aaaebaa```aaaea",
"baaa``aaaebaaaaa`aaeeaaaaaa``aa`aa``aaaaaabbaaa`aaaaebaa``aaaaea",
"baaaaaaaaebaaaaaaaaeeaaaaaaaaaaaaaaaaaaaaabbaaaaaaaaebaaaaaaaaea",
"baaaaaaaaebaaaaaaaaeeaaaaaaaaaaaaaaaaaaaaabbaaaaaaaaebaaaaaaaaea",
"baaaaaaaaebaaaaaaaaeeaaaaaaaaaaaaaaaaaaaaabbaaaaaaaaebaaaaaaaaea",
"bffffffffebffffffffebbbbbbbbbbbbbbbbbbbbbbbbffffffffebffffffffea",
"aaaaaaaaaaaaaaaaaaaaaaaaaaaaaaaaaaaaaaaaaaaaaaaaaaaaaaaaaaaaaaaa",
"aaaaaaaaaaaaaaaaaaaaaaaaaaaaaaaaaaaaaaaaaaaaaaaaaaaaaaaaaaaaaaaa",
"aaaaaaaaaaaaaaaaaaaaaaaaaaaaaaaaaaaaaaaaaaaaaaaaaaaaaaaaaaaaaaaa",
"aaaaaaaaaaaaaaaaaaaaaaaaaaaaaaaaaaaaaaaaaaaaaaaaaaaaaaaaaaaaaaaa",
"aaaaaaaaaaaaaaaaaaaaaaaaaaaaaaaaaaaaaaaaaaaaaaaaaaaaaaaaaaaaaaaa",
"aaaaaaaaaaaaaaaaaaaaaaaaaaaaaaaaaaaaaaaaaaaaaaaaaaaaaaaaaaaaaaaa",
"aaaaaaaaaaaaaaaaaaaaaaaaaaaaaaaaaaaaaaaaaaaaaaaaaaaaaaaaaaaaaaaa",
"aaaaaaaaaaaaaaaaaaaaaaaaaaaaaaaaaaaaaaaaaaaaaaaaaaaaaaaaaaaaaaaa"
};
