/* XPM */
static char *dial_pixels[] = {
"46 34 4 1",
   "`  c None",
   "a  c #cecece",
   "b  c #282828",
   "c  c gray35",
"``````````````````````````````````````````````",
"``````````````````````````````````````````````",
"````````````````````aaaaaaa```````````````````",
"`````````````````aaa```````aaa````````````````",
"```````````````aa`````````````aa``````````````",
"``````````````a`````````````````a`````````````",
"`````````````a`bb````````````````a````````````",
"````````````abbbbb````````````````c```````````",
"```````````a``bbbbb````````````````c``````````",
"``````````a````bbbbb````````````````c`````````",
"``````````a````bbbbbb```````````````c`````````",
"`````````a``````bbbb`````````````````c````````",
"`````````a```````bb``````````````````c````````",
"`````````a```````````````````````````c````````",
"````````a`````````````````````````````c```````",
"````````a`````````````````````````````c```````",
"````````a`````````````````````````````c```````",
"````````a`````````````````````````````c```````",
"````````a`````````````````````````````c```````",
"````````a`````````````````````````````c```````",
"````````a`````````````````````````````c```````",
"`````````a```````````````````````````c````````",
"`````````a```````````````````````````c````````",
"`````````a```````````````````````````c````````",
"``````````a`````````````````````````c`````````",
"``````````a`````````````````````````c`````````",
"```````````a```````````````````````c``````````",
"````````````a`````````````````````c```````````",
"`````````````c```````````````````c````````````",
"``````````````c`````````````````c`````````````",
"```````````````cc`````````````cc``````````````",
"`````````````````ccc```````ccc````````````````",
"````````````````````ccccccc```````````````````",
"``````````````````````````````````````````````"
};
