/* XPM */
static char *glcan_pixels[] = {
"40 39 16 1",
   "`  c black",
   "a  c #0b070a",
   "b  c #5d3d6b",
   "c  c #70c6ab",
   "d  c #d1ccdc",
   "e  c #09080a",
   "f  c #0c0706",
   "g  c #7f89d3",
   "h  c #0f2430",
   "i  c #d43ca3",
   "j  c #0b090b",
   "k  c #3889ac",
   "l  c #0c070d",
   "m  c #0b0551",
   "n  c #090b10",
   "o  c None",
"````````````````````````````````````````",
"````````````````````````````````````````",
"````````````````````````````````````````",
"````````````````````````````````````````",
"nnoojejejjjjjjjjjjjjjjnnjffffjjjfffjlleo",
"hhnooeejejjjjjjjjjjjjjeoffffennnnofflllo",
"bcbhonjejjjjjjjjjjjjjjooffflnnhmhnoflnno",
"hccbhojeejjjjajjjjjjjjeejjlnhbgkmhojlnjo",
"bcckbhofjnnnfleoojlljffjonnhgddkmmnllloo",
"bccckbhoennelleoojlllfjnnhkdddgkmmmlaleo",
"bcdcckbhofllnnlaaaljafnnbgddddgkmmmnonlo",
"bcddckkkhjfjnnllllaajenbddddddgmmmmmnnll",
"bcdddckkbhoooellllfoenhddddddgkmmmmmmnll",
"bcdddcckkkhnofalllffenbdddddggkmmmmmmhlf",
"hccddcckkkkhnojenafjnhgddddgggkkmmmmmmnf",
"hccddccckkkbhhonnjfonbddggkggkkgkmmmmmno",
"hcccccccckkkkbhnnefongdgggkgkkkkkkmmmmno",
"hccccddccckkkkbhnnlnhggkkkggggkkkgkmmmno",
"hkcccdddcckkkbbgbbhlhkkgkkkgggkkkkgkmmnn",
"hkccdddccckggdiiiiibhhkkkkggkgkgggkkmmnn",
"hkccccccccgdddddiiiiihmkkgkkkkgggkkkgmnl",
"hkcccccccdddddddiiiiiihmgkgkkkkkkkkggbof",
"hkkccccccddddddddiiiiibhbgkkkkkkkkgkmmjf",
"hkkkkckkdddddddddiiiiibhhbkkkgkkkkmnnnen",
"nhbkkkkbdddddddddiiiiiiblhkkggkkmhnfflen",
"fohhhhhbdddddddddiiiiiiblnhkgkmnallffaje",
"oooooojhdddddddddiiiiiiblonnhnnlajjajjej",
"ejjjejlhdddddddddiiiiiiblneanojajjjjjjej",
"jjejallhddddddddiiiiiiibloolneaajjjjjjjj",
"jjjafllhgddddddiiiiiiibbloallnjjjjjjjejj",
"jejjflnnbiiidiiiiiiiiibhloalnnfajjjjjjjj",
"jjeaajnlbiiiiiiiiiiiibblaollnefajjjjejjj",
"jjjjojonlbiiiiiiiiibbbhloollnnfajjjejeje",
"jjjaajooalbiiiiiiiibblleoollnnfajjjjjjjj",
"jjejjffooolbbbbbbbbblfleooannefajjjjjjjj",
"jejjjjjjejalllhhlllaljejejjjeejjjjjjjjjj",
"````````````````````````````````````````",
"````````````````````````````````````````",
"````````````````````````````````````````"
};
