#define hcenter_width 20
#define hcenter_height 20
static char hcenter_bits[] = {
   0xf0, 0xff, 0x00, 0xf0, 0xff, 0x00, 0xf0, 0xff, 0x00, 0xf0, 0xff, 0x00,
   0x00, 0x00, 0x00, 0x00, 0x00, 0x00, 0x00, 0x00, 0x00, 0xff, 0xff, 0x0f,
   0xff, 0xff, 0x0f, 0xff, 0xff, 0x0f, 0xff, 0xff, 0x0f, 0xff, 0xff, 0x0f,
   0x00, 0x00, 0x00, 0x00, 0x00, 0x00, 0x00, 0x00, 0x00, 0x00, 0x00, 0x00,
   0xfc, 0xff, 0x03, 0xfc, 0xff, 0x03, 0xfc, 0xff, 0x03, 0xfc, 0xff, 0x03};
