#define right_width 20
#define right_height 20
static char right_bits[] = {
   0x00, 0xff, 0x0f, 0x00, 0xff, 0x0f, 0x00, 0xff, 0x0f, 0x00, 0xff, 0x0f,
   0x00, 0x00, 0x00, 0x00, 0x00, 0x00, 0x00, 0x00, 0x00, 0xff, 0xff, 0x0f,
   0xff, 0xff, 0x0f, 0xff, 0xff, 0x0f, 0xff, 0xff, 0x0f, 0xff, 0xff, 0x0f,
   0x00, 0x00, 0x00, 0x00, 0x00, 0x00, 0x00, 0x00, 0x00, 0x00, 0x00, 0x00,
   0xf8, 0xff, 0x0f, 0xf8, 0xff, 0x0f, 0xf8, 0xff, 0x0f, 0xf8, 0xff, 0x0f};
