/* XPM */
static char *timer_pixels[] = {
"40 22 2 1",
"+  c #040204   g grey1 ",
"a  c #a4a2a4   g grey63 ",
"aaaaaaaaaaaaaaaaaaaaaaaaaaaaaaaaaaaaaaaa",
"aaaaaaaaaaaaaaaaaaaaaaaaaaaaaaaaaaaaaaaa",
"aaaaaaaaaaaaaaaaaaaaaaaaaaaaaaaaaaaaaaaa",
"aaaaaaaaaaaaaaaaaaaaaaaaaaaaaaaaaaaaaaaa",
"aaaaaaaaaaaaaaaaaaaaaaaaaaaaaaaaaaaaaaaa",
"aaaaaaaaaaaaaaaaaaaaaaaaaaaaaaaaaaaaaaaa",
"aaaaaaaaaaaaaaaaaaaaaaaaaaaaaaaaaaaaaaaa",
"aaaaaa++aaaaaaa+++aaaaa++aaaaaa+++aaaaaa",
"aaaaa+++aaaaaa+++++aaaa++aaaaa+++++aaaaa",
"aaaaaa++aaaaaa+aa++aaa+++aaaaa+aa++aaaaa",
"aaaaaa++aaa++aaaa++aa+a++aaaaaaaa++aaaaa",
"aaaaaa++aaa++aaaa+aaa+a++aaaaaaaa+aaaaaa",
"aaaaaa++aaaaaaaa+aaa++a++aaaaaaa+aaaaaaa",
"aaaaaa++aaaaaaa+aa+a++++++aaaaa+aa+aaaaa",
"aaaaaa++aaa++a+++++aaaa++aa++a+++++aaaaa",
"aaaaa++++aa++a+++++aaaa++aa++a+++++aaaaa",
"aaaaaaaaaaaaaaaaaaaaaaaaaaaaaaaaaaaaaaaa",
"aaaaaaaaaaaaaaaaaaaaaaaaaaaaaaaaaaaaaaaa",
"aaaaaaaaaaaaaaaaaaaaaaaaaaaaaaaaaaaaaaaa",
"aaaaaaaaaaaaaaaaaaaaaaaaaaaaaaaaaaaaaaaa",
"aaaaaaaaaaaaaaaaaaaaaaaaaaaaaaaaaaaaaaaa",
"aaaaaaaaaaaaaaaaaaaaaaaaaaaaaaaaaaaaaaaa",
};
