/* XPM */
static char *vals_pixels[] = {
"60 30 6 1",
   "`  c black",
   "a  c None",
   "b  c gray87",
   "c  c #cecece",
   "d  c #282828",
   "e  c gray35",
"aaaaaaaaaaaaaaaaaaaaaaaaaaaaaaaaaaaaaaaaaaaaaaaaaaaaaaaaaaaa",
"aaaaaaaaaaaaaaaaaaaaaaaaaaaaaaaaaaaaaaaaaaaaaaaaaaaaaaaaaaaa",
"aaaaaaaaaaaaaaaaaaaaaaaaaaaaaaaaaaaaaaaaaaaaaaaaaaaaaaaaaaaa",
"aaaaaaaaaaaaaaaaaaaaaaaaaaaaaaaaaaaaaaaaaaaaaaaaaaaaaaaaaaaa",
"aaaaaaaaaaaaaaaaaaaaaaaaaaaaaaaaaaaaaaaaaaaaaaaaaaaaaaaaaaaa",
"aaaaaaaaaaaaaaaaaaaaaaaaaaaaaaaaaaaaaaaaaaaaaaaaaaaaaaaaaaaa",
"aaaaaaaaaaaaaaaaaaaaaaaaaaaaaaaaaaaaaaaaaaaaaaaaaaaaaaaaaaaa",
"aaeeeeeeeeeeeeeeeeeeeeeeeeeeeeeeeeeeeeeeeeeeeeeeeeeeeeeeeeea",
"aadaaaaaaaaaaaaaaaabdaaaaaaaaaaaacccccccccccaaaaaaaaaaaaaaba",
"aadaaaaaaaaaaaaaaaabdaaaaaaaaaaaabaaaaaaaaaadaaaaaaaaaaaaaba",
"aadaaaaaaaaaaaaaaaabdaaaaaaaaaaaabaaaaaaaaaadaaaaaaaaaaaaaba",
"aadaaaa``aaaaa```aabdaaaaaaaaaaaabaaaaaaaaaadaaaaaaaaaaaaaba",
"aadaaa`aa`aaaa`aaaabdaaaaaaaaaaaabaaaaaaaaaadaaaaaaaaaaaaaba",
"aadaaa`aa`aaaa``aaabdaaaaaaaaaaaabaaaaaaaaaadaaaaaaaaaaaaaba",
"aadaaa`aa`aaaaaa`aabdaaaaaaaaaaaabaaaaaaaaaadaaaaaaaaaaaaaba",
"aadaaa`aa`aaaaaa`aabdaaaaaaaaaaaabaaaaaaaaaadaaaaaaaaaaaaaba",
"aadaaaa``aa`aa``aaabdaaaaaaaaaaaabaaaaaaaaaadaaaaaaaaaaaaaba",
"aadaaaaaaaaaaaaaaaabdaaaaaaaaaaaabaaaaaaaaaadaaaaaaaaaaaaaba",
"aadaaaaaaaaaaaaaaaabdaaaaaaaaaaaabaaaaaaaaaadaaaaaaaaaaaaaba",
"aadaaaaaaaaaaaaaaaabdaaaaaaaaaaaabaaaaaaaaaadaaaaaaaaaaaaaba",
"aadaaaaaaaaaaaaaaaabdaaaaaaaaaaaabeeeeeeeeeedaaaaaaaaaaaaaba",
"aabbbbbbbbbbbbbbbbbbbbbbbbbbbbbbbbbbbbbbbbbbbbbbbbbbbbbbbbba",
"aaaaaaaaaaaaaaaaaaaaaaaaaaaaaaaaaaaaaaaaaaaaaaaaaaaaaaaaaaaa",
"aaaaaaaaaaaaaaaaaaaaaaaaaaaaaaaaaaaaaaaaaaaaaaaaaaaaaaaaaaaa",
"aaaaaaaaaaaaaaaaaaaaaaaaaaaaaaaaaaaaaaaaaaaaaaaaaaaaaaaaaaaa",
"aaaaaaaaaaaaaaaaaaaaaaaaaaaaaaaaaaaaaaaaaaaaaaaaaaaaaaaaaaaa",
"aaaaaaaaaaaaaaaaaaaaaaaaaaaaaaaaaaaaaaaaaaaaaaaaaaaaaaaaaaaa",
"aaaaaaaaaaaaaaaaaaaaaaaaaaaaaaaaaaaaaaaaaaaaaaaaaaaaaaaaaaaa",
"aaaaaaaaaaaaaaaaaaaaaaaaaaaaaaaaaaaaaaaaaaaaaaaaaaaaaaaaaaaa",
"aaaaaaaaaaaaaaaaaaaaaaaaaaaaaaaaaaaaaaaaaaaaaaaaaaaaaaaaaaaa"
};
