/* XPM */
static char * quickopen_xpm[] = {
"16 16 55 1",
" 	c None",
".	c #AC4903",
"+	c #BD5105",
"@	c #CE5900",
"#	c #E88E3C",
"$	c #BA7110",
"%	c #FFDE24",
"&	c #FFEE1B",
"*	c #FFF71D",
"=	c #E38423",
"-	c #D79B0F",
";	c #F9D510",
">	c #FFE300",
",	c #F0B512",
"'	c #955013",
")	c #F6C20E",
"!	c #FCD907",
"~	c #FFE203",
"{	c #CA750D",
"]	c #AB6B11",
"^	c #F9C70F",
"/	c #FFDE00",
"(	c #E3AF0B",
"_	c #CD8D0E",
":	c #F9CA07",
"<	c #F7D102",
"[	c #BF850E",
"}	c #834215",
"|	c #F1B00F",
"1	c #FDD619",
"2	c #FDDD1E",
"3	c #FBDE25",
"4	c #D5961F",
"5	c #A6702E",
"6	c #BE8216",
"7	c #EAB50B",
"8	c #EFC600",
"9	c #D6A60E",
"0	c #724512",
"a	c #F7BF05",
"b	c #DEB40B",
"c	c #AA8016",
"d	c #A57112",
"e	c #E6B504",
"f	c #B38317",
"g	c #642E11",
"h	c #E2A80B",
"i	c #BC8516",
"j	c #8D5519",
"k	c #D39912",
"l	c #8C5014",
"m	c #BC891F",
"n	c #924F16",
"o	c #7B3D1D",
"p	c #A97327",
"                ",
"        .+@#    ",
"       $%&*=    ",
"       -;>,     ",
"      ')!~{     ",
"      ]^/(      ",
"      _:<[      ",
"     }|1234     ",
"     56789      ",
"      0abc      ",
"      def       ",
"     ghi        ",
"     jkl        ",
"     mn         ",
"    op          ",
"                "};
