/* XPM */
static char * system_switch_user_xpm[] = {
"16 16 155 2",
"  	c None",
". 	c #A0C69A",
"+ 	c #67A761",
"@ 	c #63A558",
"# 	c #68A958",
"$ 	c #6DAC58",
"% 	c #72AE58",
"& 	c #75B058",
"* 	c #6DAB58",
"= 	c #68A858",
"- 	c #63A458",
"; 	c #6BA966",
"> 	c #9AC295",
", 	c #5A9E58",
"' 	c #99C299",
") 	c #97B397",
"! 	c #97B297",
"~ 	c #61A061",
"{ 	c #479145",
"] 	c #8AB88A",
"^ 	c #91B091",
"/ 	c #D8D9D8",
"( 	c #D2DAD2",
"_ 	c #589958",
": 	c #3F8A3D",
"< 	c #87AA87",
"[ 	c #D9DAD9",
"} 	c #DCE0DC",
"| 	c #91BA91",
"1 	c #79AE79",
"2 	c #7AAE7A",
"3 	c #539353",
"4 	c #498846",
"5 	c #DBDCDB",
"6 	c #E3E3E3",
"7 	c #D4D6D4",
"8 	c #BFC1BF",
"9 	c #C2C4C2",
"0 	c #C4C6C4",
"a 	c #BDC2BD",
"b 	c #71A871",
"c 	c #6AA56A",
"d 	c #4E8F4E",
"e 	c #488A46",
"f 	c #E0E4E0",
"g 	c #E1E1E1",
"h 	c #DCE1DC",
"i 	c #D1E0D1",
"j 	c #D3E3D3",
"k 	c #D5E6D5",
"l 	c #CDE3CD",
"m 	c #64AB64",
"n 	c #5AA35A",
"o 	c #5A9E5A",
"p 	c #5A9B5A",
"q 	c #5A9C5A",
"r 	c #4F8D4E",
"s 	c #247321",
"t 	c #65A065",
"u 	c #DDDEDD",
"v 	c #69A369",
"w 	c #4AA84A",
"x 	c #4AAB4A",
"y 	c #4FAB4F",
"z 	c #9FBB9F",
"A 	c #92AD92",
"B 	c #449044",
"C 	c #308230",
"D 	c #0F650E",
"E 	c #0E640A",
"F 	c #006700",
"G 	c #358E35",
"H 	c #E1E8E1",
"I 	c #CEE0CE",
"J 	c #169C16",
"K 	c #16A116",
"L 	c #15A115",
"M 	c #0D990D",
"N 	c #B2DCB2",
"O 	c #EFEFEF",
"P 	c #7BA07B",
"Q 	c #016601",
"R 	c #0D620B",
"S 	c #12660C",
"T 	c #006B00",
"U 	c #007A00",
"V 	c #269926",
"W 	c #31AA31",
"X 	c #00A000",
"Y 	c #249A24",
"Z 	c #309B30",
"` 	c #309730",
" .	c #3A943A",
"..	c #D1DCD1",
"+.	c #7A9C7A",
"@.	c #13640F",
"#.	c #16690E",
"$.	c #006F00",
"%.	c #007F00",
"&.	c #008E00",
"*.	c #009D00",
"=.	c #22B222",
"-.	c #F9F9F9",
";.	c #FEFEFE",
">.	c #F6F6F6",
",.	c #E9E9E9",
"'.	c #ECECEC",
").	c #578A51",
"!.	c #1B6B10",
"~.	c #007100",
"{.	c #008000",
"].	c #009000",
"^.	c #01B001",
"/.	c #5DD65D",
"(.	c #6DDB6D",
"_.	c #6CD26C",
":.	c #6AC46A",
"<.	c #C8D4C8",
"[.	c #EAEAEA",
"}.	c #B4D1B4",
"|.	c #236F1A",
"1.	c #1F6D11",
"2.	c #007000",
"3.	c #00AB00",
"4.	c #00B600",
"5.	c #00AC00",
"6.	c #76B176",
"7.	c #E7E7E7",
"8.	c #B2D3B2",
"9.	c #097509",
"0.	c #1F6B11",
"a.	c #2C751A",
"b.	c #006C00",
"c.	c #008800",
"d.	c #009500",
"e.	c #00A700",
"f.	c #00A800",
"g.	c #00A100",
"h.	c #AFD6AF",
"i.	c #ADD3AD",
"j.	c #097F09",
"k.	c #266F16",
"l.	c #478030",
"m.	c #307715",
"n.	c #2D7912",
"o.	c #2D7C12",
"p.	c #2D8012",
"q.	c #2C8212",
"r.	c #2B8312",
"s.	c #2A8112",
"t.	c #2A7E12",
"u.	c #2A7A12",
"v.	c #2A7612",
"w.	c #2E7416",
"x.	c #2F6E1A",
"                                ",
"  . + @ # $ % & & % * = - ; >   ",
"  , ' ' ) ! ' ' ' ' ' ' ' ' ~   ",
"  { ] ^ / ( ] ] ] ] ] ] ] ] _   ",
"  : < [ } | 1 1 1 2 2 2 2 2 3   ",
"  4 5 6 7 8 9 0 a b c c c c d   ",
"  e f g h i j k l m n o p q r   ",
"  s t } u v w x x y z A B C D   ",
"  E F G H I J K L M N O P Q R   ",
"  S T U V W X Y Z `  ...6 +.@.  ",
"  #.$.%.&.*.=.-.;.;.>.,.6 '.).  ",
"  !.~.{.].X ^./.(._.:.<.[.}.|.  ",
"  1.2.%.&.*.3.4.4.5.6.7.8.9.0.  ",
"  a.b.U c.d.X e.f.g.h.i.j.b.k.  ",
"  l.m.n.o.p.q.r.r.s.t.u.v.w.x.  ",
"                                "};
