/* XPM */
static char * system_shutdown_xpm[] = {
"16 16 155 2",
"  	c None",
". 	c #ED9191",
"+ 	c #DD7171",
"@ 	c #DB6C6C",
"# 	c #DA6C6C",
"$ 	c #D96C6C",
"% 	c #D86C6C",
"& 	c #D76C6C",
"* 	c #D66C6C",
"= 	c #D97474",
"- 	c #E88E8E",
"; 	c #CD5959",
"> 	c #D29999",
", 	c #C66363",
"' 	c #C24545",
") 	c #CA8A8A",
"! 	c #C78A8A",
"~ 	c #C3AFAF",
"{ 	c #C5A5A5",
"] 	c #C5A4A4",
"^ 	c #C3A3A3",
"/ 	c #C2ADAD",
"( 	c #BD5858",
"_ 	c #BC3D3D",
": 	c #C37A7A",
"< 	c #C8ACAC",
"[ 	c #E6E6E6",
"} 	c #E3D7D7",
"| 	c #E9E4E4",
"1 	c #E2D6D6",
"2 	c #E3E3E3",
"3 	c #C6AAAA",
"4 	c #B95353",
"5 	c #B63535",
"6 	c #BC7373",
"7 	c #E1E0E0",
"8 	c #EAEAEA",
"9 	c #C98887",
"0 	c #BE6B6A",
"a 	c #EBE6E6",
"b 	c #C98888",
"c 	c #E8E8E8",
"d 	c #DDDDDD",
"e 	c #BC7272",
"f 	c #B44E4E",
"g 	c #B12F2F",
"h 	c #C28888",
"i 	c #E1CAC9",
"j 	c #BD605A",
"k 	c #C2645A",
"l 	c #E6E1E0",
"m 	c #E6E0E0",
"n 	c #BE605A",
"o 	c #E0C9C8",
"p 	c #E5E5E5",
"q 	c #C18787",
"r 	c #B24F4E",
"s 	c #A82221",
"t 	c #C38686",
"u 	c #DBB6B1",
"v 	c #C25A4A",
"w 	c #C85E4A",
"x 	c #E2DBDA",
"y 	c #E1DBD9",
"z 	c #CA634F",
"A 	c #C66456",
"B 	c #DCB8B3",
"C 	c #BC7878",
"D 	c #930F0E",
"E 	c #9B0B0A",
"F 	c #AA4948",
"G 	c #EBEBEB",
"H 	c #DDC6C2",
"I 	c #BD3112",
"J 	c #C73B16",
"K 	c #DFCAC4",
"L 	c #DFC9C3",
"M 	c #C5350D",
"N 	c #B82201",
"O 	c #DAC1BD",
"P 	c #AA4847",
"Q 	c #900D0B",
"R 	c #9A0F0C",
"S 	c #99120C",
"T 	c #E9E1E0",
"U 	c #ECECEC",
"V 	c #C1684F",
"W 	c #D13500",
"X 	c #DC4B14",
"Y 	c #C0674E",
"Z 	c #E8E0DF",
"` 	c #9A120C",
" .	c #90110D",
"..	c #9A140E",
"+.	c #990900",
"@.	c #C8766A",
"#.	c #EEEEEE",
"$.	c #C78D76",
"%.	c #CC5E2D",
"&.	c #CB5D2C",
"*.	c #C38972",
"=.	c #DBDBDA",
"-.	c #C97569",
";.	c #9A0A00",
">.	c #90150F",
",.	c #9A1810",
"'.	c #9B0B00",
").	c #AD1900",
"!.	c #D9917F",
"~.	c #EBEAE9",
"{.	c #E0E0E0",
"].	c #D7D7D7",
"^.	c #D0D0D0",
"/.	c #E6E5E4",
"(.	c #D9907D",
"_.	c #AE1A00",
":.	c #9C0B00",
"<.	c #901911",
"[.	c #991B11",
"}.	c #AB1700",
"|.	c #BC2500",
"1.	c #D55831",
"2.	c #E6A48B",
"3.	c #E6C2B3",
"4.	c #E4C0B1",
"5.	c #E4A289",
"6.	c #D55830",
"7.	c #BD2600",
"8.	c #AC1800",
"9.	c #921D11",
"0.	c #9C271A",
"a.	c #940600",
"b.	c #A51300",
"c.	c #B51F00",
"d.	c #C42B00",
"e.	c #D93B00",
"f.	c #D23500",
"g.	c #C52C00",
"h.	c #B62000",
"i.	c #A61400",
"j.	c #950700",
"k.	c #942316",
"l.	c #A23A30",
"m.	c #952515",
"n.	c #982512",
"o.	c #9C2912",
"p.	c #A02D12",
"q.	c #A32F12",
"r.	c #A43112",
"s.	c #A22F12",
"t.	c #9E2D12",
"u.	c #9A2912",
"v.	c #952612",
"w.	c #922616",
"x.	c #92241A",
"                                ",
"  . + @ @ # # # $ % % & * = -   ",
"  ; > > > > > > > > > > > > ,   ",
"  ' ) ! ~ { ) ] ] ) ^ / ! ) (   ",
"  _ : < [ } : | | : 1 2 3 : 4   ",
"  5 6 7 8 9 0 a a 0 b c d e f   ",
"  g h c i j k l m k n o p q r   ",
"  s t 8 u v w x y z A B c C D   ",
"  E F G H I J K L M N O 8 P Q   ",
"  R S T U V W X X W Y 8 Z `  .  ",
"  ..+.@.#.7 $.%.&.*.=.U -.;.>.  ",
"  ,.'.).!.~.{.].^.]./.(._.:.<.  ",
"  [.+.}.|.1.2.3.4.5.6.7.8.;.9.  ",
"  0.a.b.c.d.W e.e.f.g.h.i.j.k.  ",
"  l.m.n.o.p.q.r.r.s.t.u.v.w.x.  ",
"                                "};
