/* XPM */
static char * hottocold_xpm[] = {
"16 16 140 2",
"  	c None",
". 	c #A20A0A",
"+ 	c #9B0E11",
"@ 	c #90161D",
"# 	c #851D28",
"$ 	c #792435",
"% 	c #6E2B40",
"& 	c #63324C",
"* 	c #583A57",
"= 	c #4D4163",
"- 	c #41486F",
"; 	c #36507A",
"> 	c #2C5786",
", 	c #205E92",
"' 	c #15659D",
") 	c #9B0F11",
"! 	c #8F161D",
"~ 	c #841D29",
"{ 	c #792434",
"] 	c #6F2C40",
"^ 	c #63324B",
"/ 	c #583A58",
"( 	c #4C4164",
"_ 	c #41486E",
": 	c #36507B",
"< 	c #2B5787",
"[ 	c #205F92",
"} 	c #15669E",
"| 	c #A0B9C2",
"1 	c #EAEEEF",
"2 	c #4C4163",
"3 	c #414870",
"4 	c #364F7B",
"5 	c #2B5786",
"6 	c #9A0F12",
"7 	c #841D2A",
"8 	c #792535",
"9 	c #6E2C40",
"0 	c #7DB0C0",
"a 	c #E8E8E8",
"b 	c #E9ECED",
"c 	c #42486F",
"d 	c #2B5887",
"e 	c #1F5F93",
"f 	c #15659F",
"g 	c #9B0F12",
"h 	c #8F171E",
"i 	c #6D2C41",
"j 	c #62344C",
"k 	c #583B58",
"l 	c #DFDFDF",
"m 	c #E3E7E8",
"n 	c #205F93",
"o 	c #8F161E",
"p 	c #841E2A",
"q 	c #792536",
"r 	c #62344D",
"s 	c #573B58",
"t 	c #4C4264",
"u 	c #DDDDDD",
"v 	c #E4E8E9",
"w 	c #2A5887",
"x 	c #1F5E93",
"y 	c #98BECB",
"z 	c #DBDDDD",
"A 	c #E3E3E3",
"B 	c #E4E4E4",
"C 	c #DEDEDE",
"D 	c #D7D7D8",
"E 	c #D1D1D1",
"F 	c #D0D0D0",
"G 	c #DADADA",
"H 	c #E5E5E5",
"I 	c #E9EDEE",
"J 	c #14679F",
"K 	c #DADEDF",
"L 	c #E2E4E5",
"M 	c #E1E4E5",
"N 	c #D3D7D8",
"O 	c #E7EDEE",
"P 	c #1F5F94",
"Q 	c #14669F",
"R 	c #990F13",
"S 	c #8E161F",
"T 	c #831E2B",
"U 	c #772536",
"V 	c #6D2D41",
"W 	c #61344E",
"X 	c #563B59",
"Y 	c #4B4264",
"Z 	c #E2E8E9",
"` 	c #295888",
" .	c #1E5F94",
"..	c #8E171F",
"+.	c #782636",
"@.	c #6D2C42",
"#.	c #61344D",
"$.	c #E1E1E1",
"%.	c #35517C",
"&.	c #2A5888",
"*.	c #1F6093",
"=.	c #991013",
"-.	c #772636",
";.	c #6D2D43",
">.	c #7FB0BF",
",.	c #EAEAEA",
"'.	c #E8ECEE",
").	c #404A71",
"!.	c #1E6094",
"~.	c #1367A0",
"{.	c #981014",
"].	c #8D181F",
"^.	c #821F2B",
"/.	c #782537",
"(.	c #6C2D42",
"_.	c #9CB8C1",
":.	c #E9EDEF",
"<.	c #4B4365",
"[.	c #404A72",
"}.	c #295889",
"|.	c #991014",
"1.	c #8D1720",
"2.	c #831F2B",
"3.	c #782637",
"4.	c #6C2D43",
"5.	c #61344F",
"6.	c #563C5A",
"7.	c #4A4266",
"8.	c #3F4A71",
"9.	c #35527E",
"0.	c #295989",
"a.	c #1D6095",
"b.	c #8D1820",
"c.	c #772637",
"d.	c #6B2E43",
"e.	c #553C5A",
"f.	c #4A4366",
"g.	c #3F4A72",
"h.	c #34517D",
"i.	c #1267A0",
"                                ",
"  . + @ # $ % & * = - ; > , '   ",
"  . ) ! ~ { ] ^ / ( _ : < [ }   ",
"  . ) @ ~ $ % | 1 2 3 4 5 , }   ",
"  . 6 ! 7 8 9 0 a b c : d e f   ",
"  . g h 7 8 i j k l m : d n }   ",
"  . 6 o p q i r s t u v w x }   ",
"  . y z A B C D E F G H I e J   ",
"  . y K L M K N E F G H O P Q   ",
"  . R S T U V W X Y l Z `  .J   ",
"  . R ..T +.@.#.X $.Z %.&.*.J   ",
"  . =...T -.;.>.,.'.).%.&.!.~.  ",
"  . {.].^./.(._.:.<.[.%.}.!.~.  ",
"  . |.1.2.3.4.5.6.7.8.9.0.a.~.  ",
"  . |.b.T c.d.W e.f.g.h.0.!.i.  ",
"                                "};
