/* XPM */
static char * system_log_out_xpm[] = {
"16 16 139 2",
"  	c None",
". 	c #91DBEE",
"+ 	c #70C3E1",
"@ 	c #6ABFDF",
"# 	c #6ABFDE",
"$ 	c #6ABEDE",
"% 	c #6ABEDD",
"& 	c #6ABDDD",
"* 	c #6ABCDC",
"= 	c #6ABBDC",
"- 	c #6ABADB",
"; 	c #6AB9DA",
"> 	c #71BDDC",
", 	c #8ED4E9",
"' 	c #59A8D2",
") 	c #99CEDF",
"! 	c #97BFCC",
"~ 	c #98BECB",
"{ 	c #65A4CD",
"] 	c #4599C9",
"^ 	c #89C6DB",
"/ 	c #DADEDF",
"( 	c #DBDDDD",
"_ 	c #5898C5",
": 	c #3D92C4",
"< 	c #7ABED6",
"[ 	c #E2E4E5",
"} 	c #E3E3E3",
"| 	c #5393C1",
"1 	c #358BBF",
"2 	c #6AB7D1",
"3 	c #6AB8D2",
"4 	c #E1E4E5",
"5 	c #E4E4E4",
"6 	c #4E8EBD",
"7 	c #2F85BA",
"8 	c #5AAFCC",
"9 	c #5AB1CD",
"0 	c #5AB3D0",
"a 	c #5AB6D2",
"b 	c #DEDEDE",
"c 	c #5AB4D0",
"d 	c #5AB0CC",
"e 	c #4F8CBB",
"f 	c #217CB3",
"g 	c #46A4C4",
"h 	c #9CB8C1",
"i 	c #7FB0BF",
"j 	c #4BB2D1",
"k 	c #4AB5D4",
"l 	c #D3D7D8",
"m 	c #D7D7D8",
"n 	c #4FB7D5",
"o 	c #56B7D4",
"p 	c #7DB0C0",
"q 	c #A0B9C2",
"r 	c #369CBE",
"s 	c #0E6AA5",
"t 	c #096DAA",
"u 	c #138DB6",
"v 	c #E9EDEF",
"w 	c #EAEAEA",
"x 	c #70ACBD",
"y 	c #16A7CE",
"z 	c #CAD0D1",
"A 	c #D1D1D1",
"B 	c #0EA4CD",
"C 	c #58A3B9",
"D 	c #E8E8E8",
"E 	c #EAEEEF",
"F 	c #188FB6",
"G 	c #0A67A2",
"H 	c #0C6DA9",
"I 	c #0088B4",
"J 	c #45ACCC",
"K 	c #E8ECEE",
"L 	c #E1E1E1",
"M 	c #5DA8BC",
"N 	c #C9CFD1",
"O 	c #D0D0D0",
"P 	c #54A6BC",
"Q 	c #DFDFDF",
"R 	c #E9ECED",
"S 	c #4CAFCD",
"T 	c #0D67A1",
"U 	c #0E6DA8",
"V 	c #008AB6",
"W 	c #0093BE",
"X 	c #45B4D4",
"Y 	c #E2E8E9",
"Z 	c #DADADA",
"` 	c #DDDDDD",
" .	c #E3E7E8",
"..	c #4BB6D4",
"+.	c #0093BF",
"@.	c #0F67A0",
"#.	c #106DA7",
"$.	c #008BB7",
"%.	c #0094BF",
"&.	c #009DC8",
"*.	c #44BBDA",
"=.	c #E5E5E5",
"-.	c #E4E8E9",
";.	c #4ABCDA",
">.	c #009DC9",
",.	c #0094C0",
"'.	c #1067A0",
").	c #116CA6",
"!.	c #009BC7",
"~.	c #00A4CF",
"{.	c #45BFDF",
"].	c #E7EDEE",
"^.	c #E9EDEE",
"/.	c #4AC1DF",
"(.	c #00A4D0",
"_.	c #009CC7",
":.	c #1169A2",
"<.	c #1870A7",
"[.	c #0090BC",
"}.	c #0098C4",
"|.	c #009FCB",
"1.	c #00A6D1",
"2.	c #2CB7DB",
"3.	c #2FB8DB",
"4.	c #00A0CB",
"5.	c #156BA3",
"6.	c #3069A4",
"7.	c #1665A0",
"8.	c #1165A0",
"9.	c #1167A2",
"0.	c #1168A4",
"a.	c #116AA5",
"b.	c #116AA6",
"c.	c #1169A5",
"d.	c #1166A2",
"e.	c #1164A0",
"f.	c #11619E",
"g.	c #15619D",
"h.	c #1D5496",
"                                ",
"  . + @ @ # $ % & * = - ; > ,   ",
"  ' ) ) ) ) ) ! ~ ) ) ) ) ) {   ",
"  ] ^ ^ ^ ^ ^ / ( ^ ^ ^ ^ ^ _   ",
"  : < < < < < [ } < < < < < |   ",
"  1 2 2 2 2 3 4 5 3 2 2 2 2 6   ",
"  7 8 8 9 0 a / b a c 9 8 d e   ",
"  f g h i j k l m n o p q r s   ",
"  t u v w x y z A B C D E F G   ",
"  H I J K L M N O P Q R S I T   ",
"  U V W X Y Q Z Z `  ...+.V @.  ",
"  #.$.%.&.*.Y =.=.-.;.>.,.$.'.  ",
"  ).V W !.~.{.].^./.(._.+.V :.  ",
"  <.I [.}.|.1.2.3.1.4.}.[.I 5.  ",
"  6.7.8.9.0.a.b.c.0.d.e.f.g.h.  ",
"                                "};
