/* XPM */
/* @(#)26       1.1  src/gos/apps/pm/icons/parameter.pm, pwrgui, gos41J, 9512A_all 3/21/95 00:54:58
 *
 *   COMPONENT_NAME: PWRGUI
 *
 *   FUNCTIONS: none
 *
 *   ORIGINS: 27
 *
 *
 *   (C) COPYRIGHT International Business Machines Corp. 1995
 *   All Rights Reserved
 *   US Government Users Restricted Rights - Use, duplication or
 *   disclosure restricted by GSA ADP Schedule Contract with IBM Corp.
 */

static char * Parameter[] = {
/* width height ncolors cpp [x_hot y_hot] */
"40 40 12 1 0 0",
/* colors */
" 	s none	m none	c none",
".	s iconColor1	m black	c black",
"X	s iconGray1	m white	c #e1e1e1e1e1e1",
"o	s iconGray2	m white	c #c8c8c8c8c8c8",
"O	s iconColor5	m black	c blue",
"+	s iconColor7	m white	c cyan",
"@	s iconGray5	m black	c #7d7d7d7d7d7d",
"#	s iconGray6	m black	c #646464646464",
"$	s iconColor2	m white	c white",
"%	s iconGray3	m white	c #afafafafafaf",
"&	s iconGray4	m white	c #969696969696",
"*	s iconGray7	m black	c #4b4b4b4b4b4b",
/* pixels */
"                                        ",
"    ......      ...................     ",
"  ..XXXXXX..   .ooooooooooooooooooo.    ",
" .XXXXXXXXXX.  .ooooooooooooooooooo.    ",
" .XXXXXXXXXX.  .oo...............oo.    ",
" ...XXXXXX...  .oo.O+O+O+O+O+O+O.oo.    ",
" .Xo......@#.  .oo.+$+O+O+O+O+O+.oo.    ",
" .Xoo%%&&&@#.  .oo.O+O+O+O+O+O+O.oo.    ",
" .Xoo%%&&&@#.  .oo.+O+O+O+O+O+O+.oo.    ",
" .Xoo%%&&&@#.  .oo.O+O+O+O+O+O+O.oo.    ",
" .Xoo%%&&&@#.  .oo.+O+O+O+O+O+O+.oo.    ",
" .Xoo%%&&&@#.  .oo.O+O+O+O+O+O+O.oo.    ",
" .Xoo%%&&&@#.  .oo.+O+O+O+O+O+O+.oo.    ",
" .Xoo%%&&&@#.  .oo.O+O+O+O+O+O+O.oo.    ",
" .Xoo%%&&&@#.  .oo.+O+O+O+O+O+O+.oo.    ",
" .Xoo%%&&&@#.  .oo...............oo.    ",
"  ..o%%&&&..   .ooooooooooooooooooo.    ",
"    ......     .ooooooooooooooooooo.    ",
"                ...................     ",
"                     .&&&&&&&.          ",
"                     .&&&&&&&.          ",
"               .....................    ",
"              .ooooooooooooooooooooo.   ",
"              .o*$o*$o*$oo*$o*$o*$oo.   ",
"          .   .o**o**o**oo**o**o**$o.   ",
"        ..*. .o*$o*$o*$o*$$o*$o*$o*oo.  ",
"      ..****..o**o**o**o***o**o**o**o.  ",
"   ...***&&**.ooooooooooooooooooooooo.  ",
" ..****&&*****........................  ",
" ..**&&****&&&*.                        ",
" # .*****&&*****.                       ",
" # #.**&&****&&**.                      ",
" # # .*****&&*****.                     ",
"   # #.**&&*******.                     ",
"     # .********..#                     ",
"     # #.*****..# #                     ",
"       # .**..# # #                     ",
"       # #..# # #                       ",
"         #  # #                         ",
"         #  #                           "};
