/* XPM */
static char * system_reboot2_xpm[] = {
"16 16 161 2",
"  	c None",
". 	c #FFEAA8",
"+ 	c #FFDC75",
"@ 	c #FFD86C",
"# 	c #FFD76C",
"$ 	c #FFD76E",
"% 	c #FFD66E",
"& 	c #FFD56C",
"* 	c #FFD36C",
"= 	c #FFD26C",
"- 	c #FFD578",
"; 	c #FFE0A2",
"> 	c #FFC954",
", 	c #FACC9B",
"' 	c #DEC4A8",
") 	c #DFC6AB",
"! 	c #E0C8AC",
"~ 	c #E0C9AE",
"{ 	c #EAC8A2",
"] 	c #FFD19B",
"^ 	c #FFBC5E",
"/ 	c #FFB73C",
"( 	c #F2D1AC",
"_ 	c #E9E9E9",
": 	c #EDEDED",
"< 	c #F1F1F1",
"[ 	c #F3F3F3",
"} 	c #F0EFED",
"| 	c #FFC889",
"1 	c #FFC689",
"2 	c #FFAF50",
"3 	c #FFAB31",
"4 	c #FDC07C",
"5 	c #F2D5B3",
"6 	c #F8F8F8",
"7 	c #FAFAFA",
"8 	c #FDBD77",
"9 	c #FDBD76",
"0 	c #FFA54A",
"a 	c #FF9F28",
"b 	c #FAB263",
"c 	c #E9D8C6",
"d 	c #FFF1DD",
"e 	c #FFFAF2",
"f 	c #FFFFFF",
"g 	c #FCB864",
"h 	c #FAB663",
"i 	c #FAB563",
"j 	c #F9B263",
"k 	c #F3AF62",
"l 	c #FF9C44",
"m 	c #FE9621",
"n 	c #F0B369",
"o 	c #F9F9F9",
"p 	c #FFFEF8",
"q 	c #FDC361",
"r 	c #FDF3E5",
"s 	c #FDFDFC",
"t 	c #FCBE51",
"u 	c #FCBC50",
"v 	c #FCB950",
"w 	c #E5CBA4",
"x 	c #DEDCD9",
"y 	c #EFAE63",
"z 	c #FE9744",
"A 	c #FC8C10",
"B 	c #F4C87E",
"C 	c #FEECC3",
"D 	c #FDC43D",
"E 	c #FEE08F",
"F 	c #FFE7A4",
"G 	c #FEC93D",
"H 	c #FEC843",
"I 	c #FEC64B",
"J 	c #FAE9C3",
"K 	c #F2F2F2",
"L 	c #EFB96A",
"M 	c #F46F00",
"N 	c #F87F00",
"O 	c #F7C45B",
"P 	c #F6E09E",
"Q 	c #FAC200",
"R 	c #FDC900",
"S 	c #FDCB00",
"T 	c #FCC400",
"U 	c #F8B800",
"V 	c #F6DF9B",
"W 	c #F0B951",
"X 	c #F47000",
"Y 	c #F88100",
"Z 	c #F8C02E",
"` 	c #FEFEFE",
" .	c #ECE7D3",
"..	c #F9CF00",
"+.	c #FFD900",
"@.	c #FFDE00",
"#.	c #FFDD00",
"$.	c #FFD800",
"%.	c #F9CC00",
"&.	c #F3F0DE",
"*.	c #F4B926",
"=.	c #F67400",
"-.	c #F8B600",
";.	c #FEF6D8",
">.	c #DCD177",
",.	c #FFEB00",
"'.	c #FFF700",
").	c #FFEA00",
"!.	c #EADF88",
"~.	c #FCFCFC",
"{.	c #F6EDCC",
"].	c #F7B300",
"^.	c #F87E00",
"/.	c #F8B700",
"(.	c #FDD52E",
"_.	c #F3F3ED",
":.	c #E4E4E4",
"<.	c #CDCCAA",
"[.	c #DAD963",
"}.	c #E0DF6A",
"|.	c #E5E3C3",
"1.	c #F9F9F3",
"2.	c #FCD329",
"3.	c #F77800",
"4.	c #F7B200",
"5.	c #FEDC30",
"6.	c #F2EDD2",
"7.	c #E3E3E3",
"8.	c #E7E7E7",
"9.	c #FDFDFD",
"0.	c #FFFCE0",
"a.	c #FFDE30",
"b.	c #FAC500",
"c.	c #F77400",
"d.	c #F77604",
"e.	c #F4A600",
"f.	c #F8B500",
"g.	c #FAC300",
"h.	c #FDD000",
"i.	c #FFE23E",
"j.	c #FEEA72",
"k.	c #FFED76",
"l.	c #FFE642",
"m.	c #FED300",
"n.	c #FCC600",
"o.	c #F8B900",
"p.	c #F6AC00",
"q.	c #F67100",
"r.	c #ED4F1E",
"s.	c #F05F00",
"t.	c #F16100",
"u.	c #F16500",
"v.	c #F26900",
"w.	c #F36B00",
"x.	c #F36C00",
"y.	c #F36E00",
"z.	c #F26A00",
"A.	c #F26800",
"B.	c #F16400",
"C.	c #F16200",
"D.	c #EA3804",
"                                ",
"  . + @ # $ % % & & * * = - ;   ",
"  > , ' ) ! ~ { ] ] ] ] ] ] ^   ",
"  / ( _ : < [ } | 1 1 1 1 1 2   ",
"  3 4 5 [ 6 7 7 8 9 9 9 9 9 0   ",
"  a b c 7 d e f g h i j k b l   ",
"  m n o p q r s t u v w x y z   ",
"  A B f C D E F G H I J K L M   ",
"  N O f P Q R S S T U V [ W X   ",
"  Y Z `  ...+.@.#.$.%.&.[ *.=.  ",
"  Y -.;.< >.,.'.'.).!.~.{.].=.  ",
"  ^./.(._.:.<.[.}.|.f 1.2.U =.  ",
"  3.4.Q 5.6.7.8.K 9.0.a.b.-.c.  ",
"  d.e.f.g.h.i.j.k.l.m.n.o.p.q.  ",
"  r.s.t.u.v.w.x.y.x.z.A.B.C.D.  ",
"                                "};
