/* XPM */
static char * system_reboot_xpm[] = {
"16 16 168 2",
"  	c None",
". 	c #FCDCA4",
"+ 	c #F9D079",
"@ 	c #F8CD72",
"# 	c #F8CC72",
"$ 	c #F8CC73",
"% 	c #F8CB73",
"& 	c #F8CA72",
"* 	c #F8C972",
"= 	c #F8C872",
"- 	c #F8CA7C",
"; 	c #FBD49F",
"> 	c #F6C05D",
", 	c #EAC399",
"' 	c #D2BCA4",
") 	c #D3BEA7",
"! 	c #D4BFA8",
"~ 	c #D4C0A9",
"{ 	c #DCBF9F",
"] 	c #F1C799",
"^ 	c #F4B566",
"/ 	c #F3B149",
"( 	c #E3C7A8",
"_ 	c #DBDBDB",
": 	c #DFDFDF",
"< 	c #E2E2E2",
"[ 	c #E4E4E4",
"} 	c #E1E0DF",
"| 	c #EEBF8A",
"1 	c #EEBE8A",
"2 	c #F2AA5A",
"3 	c #F1A740",
"4 	c #ECB97F",
"5 	c #E3CAAE",
"6 	c #E8E8E8",
"7 	c #EAEAEA",
"8 	c #ECB67B",
"9 	c #ECB67A",
"0 	c #F0A255",
"a 	c #EF9D38",
"b 	c #EAAD6A",
"c 	c #DBCDBE",
"d 	c #EEE2D1",
"e 	c #EFEAE3",
"f 	c #EFEFEF",
"g 	c #EBB26B",
"h 	c #EAB06A",
"i 	c #EAAF6A",
"j 	c #E9AD6A",
"k 	c #E4AA69",
"l 	c #EE9A50",
"m 	c #ED9532",
"n 	c #E1AE6F",
"o 	c #E9E9E9",
"p 	c #EFEDE8",
"q 	c #ECBB68",
"r 	c #ECE4D8",
"s 	c #ECECEB",
"t 	c #EBB75B",
"u 	c #EBB55A",
"v 	c #EBB35A",
"w 	c #D8C2A1",
"x 	c #D2D0CE",
"y 	c #E0A96A",
"z 	c #ED9650",
"A 	c #EB8D24",
"B 	c #E5BF81",
"C 	c #EEEEEE",
"D 	c #EDDEBB",
"E 	c #ECBC4A",
"F 	c #EDD48F",
"G 	c #EEDAA1",
"H 	c #EDC04A",
"I 	c #EDBF4F",
"J 	c #EDBE56",
"K 	c #EADBBB",
"L 	c #E3E3E3",
"M 	c #E0B370",
"N 	c #E5740F",
"O 	c #E8820C",
"P 	c #E7BC63",
"Q 	c #E6D49C",
"R 	c #EABA12",
"S 	c #ECC016",
"T 	c #ECC216",
"U 	c #ECC215",
"V 	c #EBBC0D",
"W 	c #E8B200",
"X 	c #E6D399",
"Y 	c #E1B35B",
"Z 	c #E5750B",
"` 	c #E8830E",
" .	c #E8B93D",
"..	c #EDEDED",
"+.	c #DEDAC9",
"@.	c #E9C505",
"#.	c #EECE00",
"$.	c #EFD200",
"%.	c #EFD100",
"&.	c #EECD00",
"*.	c #E9C307",
"=.	c #E4E1D2",
"-.	c #E5B336",
";.	c #E6780E",
">.	c #E88310",
",.	c #E8B003",
"'.	c #EDE6CD",
").	c #D0C77B",
"!.	c #EEDD03",
"~.	c #F3E700",
"{.	c #EEDC04",
"].	c #DCD389",
"^.	c #EBEBEB",
"/.	c #E6DFC3",
"(.	c #E7AE02",
"_.	c #E6780F",
":.	c #E88111",
"<.	c #E8B100",
"[.	c #ECCA3D",
"}.	c #E4E4DF",
"|.	c #D7D7D7",
"1.	c #C4C3A6",
"2.	c #CFCE6A",
"3.	c #D4D370",
"4.	c #D8D6BB",
"5.	c #E9E9E4",
"6.	c #EBC939",
"7.	c #E67811",
"8.	c #E77C12",
"9.	c #E7AD00",
"0.	c #EABA00",
"a.	c #EDD03F",
"b.	c #E3DFC8",
"c.	c #D6D6D6",
"d.	c #DADADA",
"e.	c #ECECEC",
"f.	c #EFEBD4",
"g.	c #EED23F",
"h.	c #EABD00",
"i.	c #E8B000",
"j.	c #E77811",
"k.	c #E77A1A",
"l.	c #E5A300",
"m.	c #E8AF00",
"n.	c #EABB00",
"o.	c #ECC607",
"p.	c #EED54B",
"q.	c #EDDC77",
"r.	c #F0DF7A",
"s.	c #F0D94E",
"t.	c #EDC907",
"u.	c #EBBE00",
"v.	c #E8B300",
"w.	c #E6A800",
"x.	c #E67616",
"y.	c #DF5930",
"z.	c #E16715",
"A.	c #E26812",
"B.	c #E26C12",
"C.	c #E36F12",
"D.	c #E47112",
"E.	c #E47212",
"F.	c #E47312",
"G.	c #E37012",
"H.	c #E36E12",
"I.	c #E26B12",
"J.	c #E26916",
"K.	c #DC461A",
"                                ",
"  . + @ # $ % % & & * * = - ;   ",
"  > , ' ) ! ~ { ] ] ] ] ] ] ^   ",
"  / ( _ : < [ } | 1 1 1 1 1 2   ",
"  3 4 5 [ 6 7 7 8 9 9 9 9 9 0   ",
"  a b c 7 d e f g h i j k b l   ",
"  m n o p q r s t u v w x y z   ",
"  A B C D E F G H I J K L M N   ",
"  O P C Q R S T U V W X [ Y Z   ",
"  `  ...+.@.#.$.%.&.*.=.[ -.;.  ",
"  >.,.'.< ).!.~.~.{.].^./.(._.  ",
"  :.<.[.}.|.1.2.3.4.C 5.6.W 7.  ",
"  8.9.0.a.b.c.d.L e.f.g.h.i.j.  ",
"  k.l.m.n.o.p.q.r.s.t.u.v.w.x.  ",
"  y.z.A.B.C.D.E.F.E.G.H.I.J.K.  ",
"                                "};
