/* XPM */
static char * system_log_out4_xpm[] = {
"16 16 119 2",
"  	c None",
". 	c #8ED4E9",
"+ 	c #65A4CD",
"@ 	c #5898C5",
"# 	c #5393C1",
"$ 	c #4E8EBD",
"% 	c #4F8CBB",
"& 	c #0E6AA5",
"* 	c #A20A0A",
"= 	c #A10D0D",
"- 	c #A00F0F",
"; 	c #A01010",
"> 	c #A21111",
", 	c #A31515",
"' 	c #961D1D",
") 	c #71BDDC",
"! 	c #DF9999",
"~ 	c #DB8989",
"{ 	c #D67A7A",
"] 	c #D16A6A",
"^ 	c #D25A5A",
"/ 	c #BE3636",
"( 	c #188FB6",
"_ 	c #0088B4",
": 	c #008AB6",
"< 	c #008BB7",
"[ 	c #9D1515",
"} 	c #6AB9DA",
"| 	c #C19C9C",
"1 	c #EAEEEF",
"2 	c #4CAFCD",
"3 	c #0093BF",
"4 	c #0094C0",
"5 	c #0090BC",
"6 	c #9E1111",
"7 	c #6ABADB",
"8 	c #BF7F7F",
"9 	c #E8E8E8",
"0 	c #E9ECED",
"a 	c #4BB6D4",
"b 	c #009DC9",
"c 	c #009CC7",
"d 	c #0098C4",
"e 	c #A01111",
"f 	c #6ABBDC",
"g 	c #D14B4B",
"h 	c #BD7070",
"i 	c #DFDFDF",
"j 	c #E3E7E8",
"k 	c #4ABCDA",
"l 	c #00A4D0",
"m 	c #00A0CB",
"n 	c #6ABCDC",
"o 	c #CE1616",
"p 	c #BC5D5D",
"q 	c #DDDDDD",
"r 	c #E4E8E9",
"s 	c #4AC1DF",
"t 	c #00A6D1",
"u 	c #A41111",
"v 	c #6ABDDD",
"w 	c #CC9797",
"x 	c #DBDDDD",
"y 	c #E3E3E3",
"z 	c #E4E4E4",
"A 	c #DEDEDE",
"B 	c #D7D7D8",
"C 	c #D1D1D1",
"D 	c #D0D0D0",
"E 	c #DADADA",
"F 	c #E5E5E5",
"G 	c #E9EDEE",
"H 	c #2FB8DB",
"I 	c #A51111",
"J 	c #6ABEDD",
"K 	c #DADEDF",
"L 	c #E2E4E5",
"M 	c #E1E4E5",
"N 	c #D3D7D8",
"O 	c #CAD0D1",
"P 	c #C9CFD1",
"Q 	c #E7EDEE",
"R 	c #2CB7DB",
"S 	c #A61111",
"T 	c #6ABEDE",
"U 	c #E2E8E9",
"V 	c #45BFDF",
"W 	c #6ABFDE",
"X 	c #E1E1E1",
"Y 	c #44BBDA",
"Z 	c #00A4CF",
"` 	c #009FCB",
" .	c #6ABFDF",
"..	c #EAEAEA",
"+.	c #E8ECEE",
"@.	c #45B4D4",
"#.	c #009DC8",
"$.	c #009BC7",
"%.	c #E9EDEF",
"&.	c #45ACCC",
"*.	c #0093BE",
"=.	c #0094BF",
"-.	c #70C3E1",
";.	c #C44646",
">.	c #138DB6",
",.	c #A01616",
"'.	c #91DBEE",
").	c #59A8D2",
"!.	c #4599C9",
"~.	c #3D92C4",
"{.	c #358BBF",
"].	c #2F85BA",
"^.	c #217CB3",
"/.	c #AA0909",
"(.	c #A90C0C",
"_.	c #A80E0E",
":.	c #A71010",
"<.	c #A71818",
"[.	c #A43030",
"                                ",
"  . + @ # $ % & * = - ; > , '   ",
"  ) ! ~ { ] ^ / ( _ : < : _ [   ",
"  } ! ~ { ] ^ | 1 2 3 4 3 5 6   ",
"  7 ! ~ { ] ^ 8 9 0 a b c d e   ",
"  f ! ~ { ] ^ g h i j k l m >   ",
"  n ! ~ { ] ^ g o p q r s t u   ",
"  v w x y z A B C D E F G H I   ",
"  J w K L M K N O P E F Q R S   ",
"  T ! ~ { ] ^ g o p i U V t I   ",
"  W ! ~ { ] ^ g h X U Y Z ` u   ",
"   .! ~ { ] ^ 8 ..+.@.#.$.d >   ",
"   .! ~ { ] ^ | %.&.*.=.*.5 e   ",
"  -.! ~ { ] ^ ;.>._ : < : _ ,.  ",
"  '.).!.~.{.].^./.(._.:.S <.[.  ",
"                                "};
