/* XPM */
static char * system_reboot_xpm[] = {
"22 22 290 2",
"  	c None",
". 	c #FBCF7F",
"+ 	c #FABC35",
"@ 	c #FABB33",
"# 	c #FABA33",
"$ 	c #FAB934",
"% 	c #FAB834",
"& 	c #FBB734",
"* 	c #FAB633",
"= 	c #FAB533",
"- 	c #FAB433",
"; 	c #FAB333",
"> 	c #FAB233",
", 	c #FAB033",
"' 	c #F9B138",
") 	c #FBCE8F",
"! 	c #FACA7C",
"~ 	c #FAE3BB",
"{ 	c #F5D3A3",
"] 	c #F5D2A4",
"^ 	c #F5D1A4",
"/ 	c #F5D1A5",
"( 	c #F9DFBC",
"_ 	c #F8B361",
": 	c #F6A20E",
"< 	c #F2C891",
"[ 	c #ECC498",
"} 	c #CAB49C",
"| 	c #C9B6A2",
"1 	c #CAB8A3",
"2 	c #CBB8A3",
"3 	c #CCB9A4",
"4 	c #CCB9A3",
"5 	c #DCBC98",
"6 	c #F1C799",
"7 	c #F2CDA3",
"8 	c #F3870C",
"9 	c #F49707",
"0 	c #F1C185",
"a 	c #DCC2A5",
"b 	c #D8D8D8",
"c 	c #DCDCDC",
"d 	c #DFDFDF",
"e 	c #E1E1E1",
"f 	c #E2E2E2",
"g 	c #E3E3E3",
"h 	c #D9D6D3",
"i 	c #EFC18D",
"j 	c #F1C99B",
"k 	c #F07D09",
"l 	c #F28E07",
"m 	c #EFBA7A",
"n 	c #ECC59B",
"o 	c #E4E2E0",
"p 	c #E5E5E5",
"q 	c #E6E6E6",
"r 	c #E7E7E7",
"s 	c #EDBB83",
"t 	c #EDBA81",
"u 	c #EDBA82",
"v 	c #F0C493",
"w 	c #EE7408",
"x 	c #F08606",
"y 	c #EDB36F",
"z 	c #ECB476",
"A 	c #E8B47C",
"B 	c #DAD2CA",
"C 	c #E9E9E9",
"D 	c #EBEBEB",
"E 	c #ECECEC",
"F 	c #ECB477",
"G 	c #EFBF8B",
"H 	c #EC6B08",
"I 	c #ED7D06",
"J 	c #ECAD64",
"K 	c #EAAD6A",
"L 	c #D6BA9B",
"M 	c #EFEAE3",
"N 	c #EFE1CF",
"O 	c #EFEFEF",
"P 	c #EBB16C",
"Q 	c #EAB06A",
"R 	c #EAAF6A",
"S 	c #EAAE6A",
"T 	c #EEBB83",
"U 	c #EA6307",
"V 	c #EC7506",
"W 	c #EAA75B",
"X 	c #E6A962",
"Y 	c #DDDAD7",
"Z 	c #EFEEED",
"` 	c #EDC17E",
" .	c #ECD4AF",
"..	c #EDEDED",
"+.	c #EBB561",
"@.	c #EBB45F",
"#.	c #EBB25F",
"$.	c #EAB05F",
"%.	c #DEAC6A",
"&.	c #C8BBAB",
"*.	c #C6B199",
"=.	c #E6A660",
"-.	c #EDB77C",
";.	c #E85B07",
">.	c #EA6E07",
",.	c #EAA653",
"'.	c #E0B578",
").	c #EAEAEA",
"!.	c #EFDDBC",
"~.	c #EBB754",
"{.	c #ECD3A3",
"].	c #EBE9E5",
"^.	c #ECBB55",
"/.	c #ECB954",
"(.	c #EBB854",
"_.	c #EBB654",
":.	c #E6CCA0",
"<.	c #E0E0E0",
"[.	c #DFB784",
"}.	c #EBB26F",
"|.	c #E65306",
"1.	c #E86707",
"2.	c #E89E35",
"3.	c #E5C287",
"4.	c #ECCF8B",
"5.	c #ECBD48",
"6.	c #EEC456",
"7.	c #EFDCA3",
"8.	c #EFD17C",
"9.	c #EDC148",
"0.	c #EDC04A",
"a.	c #EEC254",
"b.	c #EDC158",
"c.	c #ECD092",
"d.	c #DDAD62",
"e.	c #DF8709",
"f.	c #E44B05",
"g.	c #E66007",
"h.	c #E4920B",
"i.	c #E6BF6E",
"j.	c #E6C563",
"k.	c #EAB918",
"l.	c #EBBE1D",
"m.	c #ECC11E",
"n.	c #ECC21F",
"o.	c #ECC21E",
"p.	c #EBBE19",
"q.	c #E9B70B",
"r.	c #E7AF00",
"s.	c #E5C159",
"t.	c #E8E8E8",
"u.	c #E1B664",
"v.	c #E2930B",
"w.	c #E24505",
"x.	c #E55B08",
"y.	c #E69A0D",
"z.	c #E8BD54",
"A.	c #DDC97A",
"B.	c #EBBF00",
"C.	c #ECC400",
"D.	c #EDC700",
"E.	c #EDC900",
"F.	c #ECC600",
"G.	c #ECC200",
"H.	c #EABD00",
"I.	c #E1CD81",
"J.	c #E4B54C",
"K.	c #E49D0D",
"L.	c #E13E05",
"M.	c #E35508",
"N.	c #E7A10F",
"O.	c #E8B21B",
"P.	c #EFEEEC",
"Q.	c #D8D5C8",
"R.	c #E5C60D",
"S.	c #EFD200",
"T.	c #F0D700",
"U.	c #F0D900",
"V.	c #F0D600",
"W.	c #EFD100",
"X.	c #E6C60F",
"Y.	c #E3E1D6",
"Z.	c #E3E2DF",
"`.	c #E7AE16",
" +	c #E6A50F",
".+	c #E03806",
"++	c #E24F08",
"@+	c #E8A510",
"#+	c #E8B000",
"$+	c #EEDEA3",
"%+	c #C9C392",
"&+	c #E8D609",
"*+	c #F3E400",
"=+	c #F4E900",
"-+	c #F4E800",
";+	c #E9D60B",
">+	c #D8D2A3",
",+	c #E7D697",
"'+	c #E8AC11",
")+	c #DF3206",
"!+	c #E24908",
"~+	c #E9A812",
"{+	c #E8B200",
"]+	c #ECC320",
"^+	c #EAE8DC",
"/+	c #D7D7D7",
"(+	c #C1C0AB",
"_+	c #C9C54E",
":+	c #D5D423",
"<+	c #D6D525",
"[+	c #D0CD58",
"}+	c #D5D4C0",
"|+	c #EEEEEE",
"1+	c #E8E5D7",
"2+	c #EBC21C",
"3+	c #E9AF12",
"4+	c #DE2C06",
"5+	c #E14308",
"6+	c #EABA00",
"7+	c #EECF3C",
"8+	c #E6E4D9",
"9+	c #DADADA",
"0+	c #D1D1D1",
"a+	c #D0D0D0",
"b+	c #D4D4D4",
"c+	c #E4E4E4",
"d+	c #EBE9DD",
"e+	c #EDD03A",
"f+	c #EABC00",
"g+	c #E9B013",
"h+	c #E03E08",
"i+	c #E8A613",
"j+	c #E7AC00",
"k+	c #E9B500",
"l+	c #EECE24",
"m+	c #EAE1A9",
"n+	c #DEDEDD",
"o+	c #DEDEDE",
"p+	c #F0F0EF",
"q+	c #F0E7B0",
"r+	c #EFD024",
"s+	c #EBC200",
"t+	c #E9B800",
"u+	c #E9AF13",
"v+	c #DE2C07",
"w+	c #DF3B0C",
"x+	c #E8A215",
"y+	c #E5A500",
"z+	c #E7AD00",
"A+	c #E9B600",
"B+	c #EBBE00",
"C+	c #ECC500",
"D+	c #EFD22A",
"E+	c #EFDD6D",
"F+	c #EFE28C",
"G+	c #F1E48E",
"H+	c #F2E070",
"I+	c #F0D42C",
"J+	c #EDC800",
"K+	c #EBC100",
"L+	c #E8B100",
"M+	c #E6A900",
"N+	c #E8AB15",
"O+	c #DD2D08",
"P+	c #DB4626",
"Q+	c #EA8E3D",
"R+	c #E79A19",
"S+	c #E9A019",
"T+	c #EAA619",
"U+	c #EBAA19",
"V+	c #ECAF19",
"W+	c #EDB219",
"X+	c #EDB519",
"Y+	c #EDB719",
"Z+	c #EDB619",
"`+	c #EDB419",
" @	c #ECB119",
".@	c #EBAD19",
"+@	c #EAA919",
"@@	c #E9A419",
"#@	c #E89E19",
"$@	c #E88730",
"%@	c #D7290A",
"&@	c #D63315",
"*@	c #D42201",
"=@	c #D42100",
"-@	c #D52200",
";@	c #D52300",
">@	c #D52502",
",@	c #D52909",
"                                            ",
"    . + @ # $ $ % % & * = = - ; > , ' )     ",
"  ! ~ { ] ] ] ] ] ] ] ] ] ] ] ^ ^ ^ / ( _   ",
"  : < [ } | 1 2 3 4 5 6 6 6 6 6 6 6 6 7 8   ",
"  9 0 a b c d e f g h i i i i i i i i j k   ",
"  l m n o f g p q r r s t u u u u u u v w   ",
"  x y z A B r C D D E F z z z z z z z G H   ",
"  I J K L r D M N O O P Q R S S K K K T U   ",
"  V W X Y D Z `  .....+.@.#.$.%.&.*.=.-.;.  ",
"  >.,.'.).O !.~.{.C ].^./.(._.:.q <.[.}.|.  ",
"  1.2.3...O 4.5.6.7.8.9.0.a.b.c.r f d.e.f.  ",
"  g.h.i.O E j.k.l.m.n.o.p.q.r.s.t.g u.v.w.  ",
"  x.y.z.O C A.B.C.D.E.E.F.G.H.I.C g J.K.L.  ",
"  M.N.O.P.t.Q.R.S.T.U.U.V.W.X.Y.t.Z.`. +.+  ",
"  ++@+#+$+r d %+&+*+=+-+*+;+>+..r ,+r.'+)+  ",
"  !+~+{+]+^+<./+(+_+:+<+[+}+|+D 1+2+{+3+4+  ",
"  5+~+#+6+7+8+9+0+a+b+c c+E |+d+e+f+{+g+4+  ",
"  h+i+j+k+B.l+m+n+9+o+c+D p+q+r+s+t+r.u+v+  ",
"  w+x+y+z+A+B+C+D+E+F+G+H+I+J+K+6+L+M+N+O+  ",
"  P+Q+R+S+T+U+V+W+X+Y+Y+Z+`+ @.@+@@@#@$@%@  ",
"    &@*@=@-@-@-@-@;@;@;@;@;@;@;@;@;@>@,@    ",
"                                            "};
