/* XPM */
static char * view_refresh_xpm[] = {
"22 22 221 2",
"  	c None",
". 	c #016001",
"+ 	c #216F21",
"@ 	c #337633",
"# 	c #347634",
"$ 	c #2D732D",
"% 	c #166816",
"& 	c #015C01",
"* 	c #0E620E",
"= 	c #347C34",
"- 	c #579957",
"; 	c #74B474",
"> 	c #7FC47F",
", 	c #84C984",
"' 	c #80BF80",
") 	c #6EAA6E",
"! 	c #4A8E4A",
"~ 	c #0D5E0D",
"{ 	c #015600",
"] 	c #015C00",
"^ 	c #458E45",
"/ 	c #055D03",
"( 	c #1D691C",
"_ 	c #65A865",
": 	c #81C581",
"< 	c #387E36",
"[ 	c #035702",
"} 	c #035901",
"| 	c #479147",
"1 	c #126611",
"2 	c #065A03",
"3 	c #337933",
"4 	c #70B570",
"5 	c #74B974",
"6 	c #77BA77",
"7 	c #75B875",
"8 	c #76BA76",
"9 	c #61A361",
"0 	c #559A53",
"a 	c #75B975",
"b 	c #11630F",
"c 	c #175F15",
"d 	c #66AA66",
"e 	c #68AD68",
"f 	c #69AE69",
"g 	c #468B46",
"h 	c #226A22",
"i 	c #085408",
"j 	c #045004",
"k 	c #176017",
"l 	c #307930",
"m 	c #5FA75F",
"n 	c #68B068",
"o 	c #68AF68",
"p 	c #10620E",
"q 	c #0B5609",
"r 	c #498F49",
"s 	c #5BA15B",
"t 	c #549A54",
"u 	c #1B641B",
"v 	c #014D01",
"w 	c #034C02",
"x 	c #044B02",
"y 	c #064C04",
"z 	c #015401",
"A 	c #086508",
"B 	c #3F963F",
"C 	c #5BAC5B",
"D 	c #5BAB5B",
"E 	c #5BA95B",
"F 	c #5BA75B",
"G 	c #0F610D",
"H 	c #1D641C",
"I 	c #4F964F",
"J 	c #166016",
"K 	c #034E01",
"L 	c #084F04",
"M 	c #054D03",
"N 	c #026A01",
"O 	c #017A01",
"P 	c #3CA23C",
"Q 	c #4FAB4F",
"R 	c #4FA64F",
"S 	c #4FA24F",
"T 	c #0F610C",
"U 	c #105B09",
"V 	c #276E26",
"W 	c #418A41",
"X 	c #266F26",
"Y 	c #014C01",
"Z 	c #075104",
"` 	c #074F03",
" .	c #047702",
"..	c #019601",
"+.	c #20A120",
"@.	c #41AD41",
"#.	c #41A641",
"$.	c #419D41",
"%.	c #0E5F0B",
"&.	c #0C5508",
"*.	c #2B752B",
"=.	c #357E35",
"-.	c #064B03",
";.	c #065303",
">.	c #044E02",
",.	c #048002",
"'.	c #13C813",
").	c #2DC72D",
"!.	c #35BD35",
"~.	c #34AF34",
"{.	c #249824",
"].	c #127B12",
"^.	c #085A05",
"/.	c #085106",
"(.	c #267026",
"_.	c #287228",
":.	c #277127",
"<.	c #005000",
"[.	c #1B5E12",
"}.	c #035C02",
"|.	c #045C04",
"1.	c #055B04",
"2.	c #065904",
"3.	c #035501",
"4.	c #045302",
"5.	c #055402",
"6.	c #0D6007",
"7.	c #074D05",
"8.	c #085508",
"9.	c #0B570B",
"0.	c #0A5D0A",
"a.	c #006200",
"b.	c #075205",
"c.	c #085104",
"d.	c #005500",
"e.	c #006400",
"f.	c #007300",
"g.	c #0C6606",
"h.	c #035101",
"i.	c #095104",
"j.	c #006300",
"k.	c #008300",
"l.	c #0A8E06",
"m.	c #0A5905",
"n.	c #045002",
"o.	c #0C5306",
"p.	c #007000",
"q.	c #008100",
"r.	c #028D01",
"s.	c #099104",
"t.	c #1C8E0F",
"u.	c #0E5F07",
"v.	c #085204",
"w.	c #19800D",
"x.	c #0A7505",
"y.	c #018C00",
"z.	c #089104",
"A.	c #0F9508",
"B.	c #189A0D",
"C.	c #2AA217",
"D.	c #197B0D",
"E.	c #146A0B",
"F.	c #13640A",
"G.	c #19700D",
"H.	c #2E9F18",
"I.	c #26A314",
"J.	c #209F11",
"K.	c #0F5B08",
"L.	c #058D02",
"M.	c #0D9407",
"N.	c #179A0C",
"O.	c #29A516",
"P.	c #31A919",
"Q.	c #33AE1B",
"R.	c #30B319",
"S.	c #33AE1A",
"T.	c #31A91A",
"U.	c #219F11",
"V.	c #1C9C0F",
"W.	c #13680B",
"X.	c #035002",
"Y.	c #1D720F",
"Z.	c #13950A",
"`.	c #1D9D0F",
" +	c #27A415",
".+	c #31AA1A",
"++	c #2FB518",
"@+	c #27C015",
"#+	c #23C712",
"$+	c #27C014",
"%+	c #2EB518",
"&+	c #32AA1A",
"*+	c #2AA516",
"=+	c #237913",
"-+	c #004F00",
";+	c #025001",
">+	c #15650B",
",+	c #279215",
"'+	c #2DA718",
")+	c #31B11A",
"!+	c #26C214",
"~+	c #1DD10F",
"{+	c #17DA0C",
"]+	c #3EAD21",
"^+	c #227412",
"/+	c #015000",
"(+	c #0D5D07",
"_+	c #0D6B07",
":+	c #30920A",
"<+	c #25B115",
"[+	c #13D10A",
"}+	c #0BE606",
"|+	c #17D30D",
"1+	c #2CB117",
"2+	c #0B7906",
"3+	c #0A5805",
"4+	c #125E09",
"5+	c #015B01",
"6+	c #005D00",
"7+	c #115F09",
"8+	c #025101",
"                                            ",
"                . + @ # $ % &               ",
"            * = - ; > , ' ) ! ~ {     ] ^   ",
"        / ( _ : : : : : : : : ' < [ } | 1   ",
"      2 3 4 5 5 5 5 6 7 5 5 5 5 8 9 0 a b   ",
"      c d e e f g h i j k l m n n n o o p   ",
"    q r s s t u v w x y w z A B C D E F G   ",
"    H I I I J K L         M N O P Q R S T   ",
"  U V W W X Y Z           `  ...+.@.#.$.%.  ",
"  &.*.=.=.i -.;.        >.,.'.).!.~.{.].^.  ",
"  /.(._.:.<.-.          [.}.|.1.2.3.4.5.6.  ",
"  7.8.9.0.a.b.                              ",
"  c.v d.e.f.g.h.                            ",
"  ;.i.j.f.k.l.m.            n.              ",
"    o.p.q.r.s.t.u.4.      v.w.              ",
"    c.x.y.z.A.B.C.D.E.F.G.H.I.J.B.          ",
"      K.L.M.N.J.O.P.Q.R.R.S.T.O.U.V.W.      ",
"      X.Y.Z.`. +.+++@+#+#+$+%+&+*+=+-+      ",
"        ;+>+,+'+)+!+~+{+{+~+!+]+^+/+        ",
"            (+_+:+<+[+}+|+1+2+3+            ",
"                /+4+5+6+7+8+-+              ",
"                                            "};
