/* XPM */
static char * system_log_out3_xpm[] = {
"16 16 119 2",
"  	c None",
". 	c #91DBEE",
"+ 	c #70C3E1",
"@ 	c #6ABFDF",
"# 	c #6ABFDE",
"$ 	c #6ABEDE",
"% 	c #6ABEDD",
"& 	c #6ABDDD",
"* 	c #6ABCDC",
"= 	c #6ABBDC",
"- 	c #6ABADB",
"; 	c #6AB9DA",
"> 	c #71BDDC",
", 	c #8ED4E9",
"' 	c #59A8D2",
") 	c #DF9999",
"! 	c #CC9797",
"~ 	c #65A4CD",
"{ 	c #4599C9",
"] 	c #DB8989",
"^ 	c #DADEDF",
"/ 	c #DBDDDD",
"( 	c #5898C5",
"_ 	c #3D92C4",
": 	c #D67A7A",
"< 	c #E2E4E5",
"[ 	c #E3E3E3",
"} 	c #5393C1",
"| 	c #358BBF",
"1 	c #D16A6A",
"2 	c #E1E4E5",
"3 	c #E4E4E4",
"4 	c #4E8EBD",
"5 	c #2F85BA",
"6 	c #D25A5A",
"7 	c #DEDEDE",
"8 	c #4F8CBB",
"9 	c #217CB3",
"0 	c #C44646",
"a 	c #C19C9C",
"b 	c #BF7F7F",
"c 	c #D14B4B",
"d 	c #D3D7D8",
"e 	c #D7D7D8",
"f 	c #BE3636",
"g 	c #0E6AA5",
"h 	c #AA0909",
"i 	c #138DB6",
"j 	c #E9EDEF",
"k 	c #EAEAEA",
"l 	c #BD7070",
"m 	c #CE1616",
"n 	c #CAD0D1",
"o 	c #D1D1D1",
"p 	c #E8E8E8",
"q 	c #EAEEEF",
"r 	c #188FB6",
"s 	c #A20A0A",
"t 	c #A90C0C",
"u 	c #0088B4",
"v 	c #45ACCC",
"w 	c #E8ECEE",
"x 	c #E1E1E1",
"y 	c #BC5D5D",
"z 	c #C9CFD1",
"A 	c #D0D0D0",
"B 	c #DFDFDF",
"C 	c #E9ECED",
"D 	c #4CAFCD",
"E 	c #A10D0D",
"F 	c #A80E0E",
"G 	c #008AB6",
"H 	c #0093BE",
"I 	c #45B4D4",
"J 	c #E2E8E9",
"K 	c #DADADA",
"L 	c #DDDDDD",
"M 	c #E3E7E8",
"N 	c #4BB6D4",
"O 	c #0093BF",
"P 	c #A00F0F",
"Q 	c #A71010",
"R 	c #008BB7",
"S 	c #0094BF",
"T 	c #009DC8",
"U 	c #44BBDA",
"V 	c #E5E5E5",
"W 	c #E4E8E9",
"X 	c #4ABCDA",
"Y 	c #009DC9",
"Z 	c #0094C0",
"` 	c #A01010",
" .	c #A61111",
"..	c #009BC7",
"+.	c #00A4CF",
"@.	c #45BFDF",
"#.	c #E7EDEE",
"$.	c #E9EDEE",
"%.	c #4AC1DF",
"&.	c #00A4D0",
"*.	c #009CC7",
"=.	c #A21111",
"-.	c #A71818",
";.	c #0090BC",
">.	c #0098C4",
",.	c #009FCB",
"'.	c #00A6D1",
").	c #2CB7DB",
"!.	c #2FB8DB",
"~.	c #00A0CB",
"{.	c #A31515",
"].	c #A43030",
"^.	c #A01616",
"/.	c #A01111",
"(.	c #A41111",
"_.	c #A51111",
":.	c #9E1111",
"<.	c #9D1515",
"[.	c #961D1D",
"                                ",
"  . + @ @ # $ % & * = - ; > ,   ",
"  ' ) ) ) ) ) ! ! ) ) ) ) ) ~   ",
"  { ] ] ] ] ] ^ / ] ] ] ] ] (   ",
"  _ : : : : : < [ : : : : : }   ",
"  | 1 1 1 1 1 2 3 1 1 1 1 1 4   ",
"  5 6 6 6 6 6 ^ 7 6 6 6 6 6 8   ",
"  9 0 a b c c d e c c b a f g   ",
"  h i j k l m n o m l p q r s   ",
"  t u v w x y z A y B C D u E   ",
"  F G H I J B K K L M N O G P   ",
"  Q R S T U J V V W X Y Z R `   ",
"   .G H ..+.@.#.$.%.&.*.O G =.  ",
"  -.u ;.>.,.'.).!.'.~.>.;.u {.  ",
"  ].^./.=.(._. ._.(.=./.:.<.[.  ",
"                                "};
