/* XPM */
static char * help_about_xpm[] = {
"22 22 205 2",
"  	c None",
". 	c #0058B0",
"+ 	c #1365B7",
"@ 	c #3078C0",
"# 	c #4E8CCA",
"$ 	c #4E8DCB",
"% 	c #317BC3",
"& 	c #1368BB",
"* 	c #005DB7",
"= 	c #005AB1",
"- 	c #1C6CBA",
"; 	c #6EA2D4",
"> 	c #93BADF",
", 	c #93BAE0",
"' 	c #81ADDA",
") 	c #81AEDB",
"! 	c #92BAE1",
"~ 	c #93BBE2",
"{ 	c #6EA4D8",
"] 	c #1C71C3",
"^ 	c #0060BD",
"/ 	c #005BB4",
"( 	c #4789CA",
"_ 	c #82B0DC",
": 	c #8AB4DC",
"< 	c #EDF4FA",
"[ 	c #F0F5FB",
"} 	c #8CB5DD",
"| 	c #82B2DF",
"1 	c #82B2E0",
"2 	c #81B2E0",
"3 	c #478ED2",
"4 	c #0064C1",
"5 	c #005CB7",
"6 	c #3680C7",
"7 	c #70A5D8",
"8 	c #70A6D9",
"9 	c #659ED5",
"0 	c #E5EEF8",
"a 	c #FFFFFF",
"b 	c #ECF3FA",
"c 	c #639FD7",
"d 	c #70A9DD",
"e 	c #70A9DE",
"f 	c #3687D2",
"g 	c #0068C7",
"h 	c #1E73C3",
"i 	c #5E9BD5",
"j 	c #5E9CD6",
"k 	c #5E9CD7",
"l 	c #5696D3",
"m 	c #DAE8F5",
"n 	c #E3EEF8",
"o 	c #5496D4",
"p 	c #5E9FDB",
"q 	c #5EA0DC",
"r 	c #5EA0DD",
"s 	c #1E7CD0",
"t 	c #0062BF",
"u 	c #3E88CF",
"v 	c #4E93D3",
"w 	c #4E93D4",
"x 	c #4E93D5",
"y 	c #4E94D5",
"z 	c #4E95D6",
"A 	c #68A1D8",
"B 	c #D5E5F4",
"C 	c #D9E7F5",
"D 	c #6CA3D9",
"E 	c #4E97DA",
"F 	c #4E98DA",
"G 	c #4E98DB",
"H 	c #4E98DC",
"I 	c #4E99DC",
"J 	c #3E90DA",
"K 	c #006CCF",
"L 	c #0D6CC5",
"M 	c #3C89D1",
"N 	c #3C89D2",
"O 	c #3C8AD3",
"P 	c #3C8BD3",
"Q 	c #3C8CD4",
"R 	c #3C8CD5",
"S 	c #3C8CD6",
"T 	c #3789D3",
"U 	c #3788D4",
"V 	c #3C8ED8",
"W 	c #3C8FD9",
"X 	c #3C8FDA",
"Y 	c #3C90DB",
"Z 	c #3C91DC",
"` 	c #3C91DD",
" .	c #0D77D5",
"..	c #0B6EC8",
"+.	c #267ECE",
"@.	c #2A81D1",
"#.	c #2A82D2",
"$.	c #2A83D3",
"%.	c #2982D3",
"&.	c #5C9BD8",
"*.	c #71A8DC",
"=.	c #71A8DD",
"-.	c #71A9DD",
";.	c #3F8ED6",
">.	c #2A86D9",
",.	c #2A87D9",
"'.	c #2A88DA",
").	c #2A88DB",
"!.	c #2A88DC",
"~.	c #2687DC",
"{.	c #0B79D9",
"].	c #0069C9",
"^.	c #016BCA",
"/.	c #0C72CD",
"(.	c #1879D1",
"_.	c #1A7BD2",
":.	c #197AD1",
"<.	c #C4DBF1",
"[.	c #6BA6DD",
"}.	c #1A7FD9",
"|.	c #1A80DA",
"1.	c #1A80DB",
"2.	c #1880DC",
"3.	c #0C7BDB",
"4.	c #0176DA",
"5.	c #0075DB",
"6.	c #006CCD",
"7.	c #006DCE",
"8.	c #006DCF",
"9.	c #016FD0",
"0.	c #0270D1",
"a.	c #0471D3",
"b.	c #046ECE",
"c.	c #62A1DB",
"d.	c #62A3DE",
"e.	c #0577DA",
"f.	c #0476DB",
"g.	c #0276DB",
"h.	c #0177DC",
"i.	c #0076DD",
"j.	c #0077DE",
"k.	c #0078DF",
"l.	c #006FD1",
"m.	c #006FD2",
"n.	c #0070D3",
"o.	c #0071D4",
"p.	c #0071D5",
"q.	c #0072D6",
"r.	c #0073D7",
"s.	c #60A1DD",
"t.	c #60A3DF",
"u.	c #0076DC",
"v.	c #0077DD",
"w.	c #0078DE",
"x.	c #0078E0",
"y.	c #0079E1",
"z.	c #007AE2",
"A.	c #007AE3",
"B.	c #0073D8",
"C.	c #0074D9",
"D.	c #0075DA",
"E.	c #60A4E0",
"F.	c #0079E0",
"G.	c #007AE1",
"H.	c #007BE3",
"I.	c #007CE4",
"J.	c #007CE5",
"K.	c #007DE6",
"L.	c #60A4E1",
"M.	c #60A5E2",
"N.	c #007BE4",
"O.	c #007EE7",
"P.	c #007EE8",
"Q.	c #007FE9",
"R.	c #0080E9",
"S.	c #60A6E4",
"T.	c #0080EA",
"U.	c #0080EB",
"V.	c #0081EC",
"W.	c #60A5E3",
"X.	c #B0D3F1",
"Y.	c #B0D3F2",
"Z.	c #60A6E5",
"`.	c #0082EC",
" +	c #007CE6",
".+	c #AACFF0",
"++	c #E2F0FB",
"@+	c #E3F0FB",
"#+	c #E4F0FB",
"$+	c #ADD1F1",
"%+	c #0682EA",
"&+	c #0081ED",
"*+	c #0483EC",
"=+	c #1B8AE8",
"-+	c #3094E9",
";+	c #459FEA",
">+	c #58A7EB",
",+	c #3195E9",
"'+	c #188DEE",
")+	c #0181EC",
"!+	c #0784ED",
"~+	c #0D87ED",
"{+	c #1089ED",
"]+	c #0C87ED",
"^+	c #0282EC",
"                                            ",
"                                            ",
"              . + @ # $ % & *               ",
"          = - ; > , ' ) ! ~ { ] ^           ",
"        / ( ) _ _ : < [ } | 1 2 3 4         ",
"      5 6 7 7 8 9 0 a a b c d d e f g       ",
"      h i i j k l m a a n o p q q r s       ",
"    t u v w x y z A B C D E F G H I J K     ",
"    L M N O P Q R S T U V W X X Y Z `  .    ",
"    ..+.@.#.$.%.&.*.=.-.;.>.,.'.).!.~.{.    ",
"    ].^./.(._.:.<.a a a [.}.|.1.2.3.4.5.    ",
"    6.7.8.9.0.a.b.c.a a d.e.f.g.h.i.j.k.    ",
"    l.m.n.o.p.q.r.s.a a t.u.v.w.x.y.z.A.    ",
"    p.q.r.B.C.D.5.t.a a E.F.G.z.H.I.J.K.    ",
"    C.D.5.u.v.j.k.L.a a M.N.J.K.O.P.Q.R.    ",
"      j.k.x.y.z.H.M.a a S.P.Q.T.U.V.V.      ",
"      z.A.N.J.J.W.X.a a Y.Z.T.V.V.V.`.      ",
"         +O.P.P..+++@+#+@+$+%+V.V.&+        ",
"          T.V.*+=+-+;+>+;+,+'+V.V.          ",
"              V.)+!+~+{+]+^+V.              ",
"                                            ",
"                                            "};
