/* XPM */
static char * quickopen_xpm[] = {
"22 22 103 2",
"  	c None",
". 	c #C38657",
"+ 	c #B04F06",
"@ 	c #BB5607",
"# 	c #C75906",
"$ 	c #D35F03",
"% 	c #E06D08",
"& 	c #C17C12",
"* 	c #FFDA2A",
"= 	c #FFEC2D",
"- 	c #FFF01E",
"; 	c #FFF31A",
"> 	c #F3C048",
", 	c #DB7010",
"' 	c #9D5011",
") 	c #E1A50C",
"! 	c #F7CE10",
"~ 	c #FCDF09",
"{ 	c #FFE300",
"] 	c #FEE616",
"^ 	c #DD6A05",
"/ 	c #9B5312",
"( 	c #FBC60C",
"_ 	c #F8D211",
": 	c #FFE000",
"< 	c #FFE600",
"[ 	c #E59E18",
"} 	c #B45B09",
"| 	c #B77710",
"1 	c #F8C60E",
"2 	c #FAD50A",
"3 	c #F7D70B",
"4 	c #CF7207",
"5 	c #944F13",
"6 	c #D99C0E",
"7 	c #F5C50F",
"8 	c #FEDB01",
"9 	c #D9990E",
"0 	c #A16512",
"a 	c #8E4C14",
"b 	c #F9BD0B",
"c 	c #F7C90A",
"d 	c #FFDC00",
"e 	c #EEC708",
"f 	c #BE7F0F",
"g 	c #AC6B11",
"h 	c #F6B90C",
"i 	c #FCD203",
"j 	c #C49213",
"k 	c #C98906",
"l 	c #ECBC67",
"m 	c #8B4715",
"n 	c #D08D0D",
"o 	c #F5BB07",
"p 	c #FFD700",
"q 	c #FFD900",
"r 	c #FFE632",
"s 	c #F9DE36",
"t 	c #DC9C25",
"u 	c #824014",
"v 	c #FDBB18",
"w 	c #FBC320",
"x 	c #F7C82F",
"y 	c #F0CD26",
"z 	c #F2CD00",
"A 	c #DAA40D",
"B 	c #AE803F",
"C 	c #8B4C13",
"D 	c #8A5B13",
"E 	c #F6C109",
"F 	c #ECC200",
"G 	c #E0B70B",
"H 	c #C08E13",
"I 	c #744113",
"J 	c #B58410",
"K 	c #EBB902",
"L 	c #EAC005",
"M 	c #C49815",
"N 	c #5F3110",
"O 	c #F1B60D",
"P 	c #EABB00",
"Q 	c #C79816",
"R 	c #8D5F16",
"S 	c #EBAE00",
"T 	c #D3A413",
"U 	c #AB7914",
"V 	c #6D3411",
"W 	c #C98F14",
"X 	c #E3B00B",
"Y 	c #A96E15",
"Z 	c #753C16",
"` 	c #F3B70C",
" .	c #B27519",
"..	c #A66F1B",
"+.	c #CC9619",
"@.	c #934F12",
"#.	c #743314",
"$.	c #DBAF2A",
"%.	c #8F4814",
"&.	c #83471D",
"*.	c #AB7424",
"=.	c #A06F39",
"-.	c #82431A",
"                                            ",
"                    . + @ # $ %             ",
"                    & * = - ; > ,           ",
"                  ' ) ! ~ { ] ^             ",
"                  / ( _ : < [ }             ",
"                  | 1 2 : 3 4               ",
"                5 6 7 8 { 9 0               ",
"                a b c d e f                 ",
"                g h i d j k l               ",
"              m n o p q r s t               ",
"              u v w x y z A                 ",
"              B C D E F G H                 ",
"                I J K L M                   ",
"                N O P Q                     ",
"                R S T U                     ",
"              V W X Y                       ",
"              Z `  .                        ",
"              ..+.@.                        ",
"            #.$.%.                          ",
"            &.*.                            ",
"            =.-.                            ",
"                                            "};
