/* XPM */
static char * system_log_out_xpm[] = {
"22 22 259 2",
"  	c None",
". 	c #68D0EA",
"+ 	c #28ADDA",
"@ 	c #26ACD9",
"# 	c #26ABD9",
"$ 	c #26AAD8",
"% 	c #26AAD7",
"& 	c #26A9D6",
"* 	c #26A7D6",
"= 	c #26A7D5",
"- 	c #26A6D4",
"; 	c #26A5D4",
"> 	c #26A4D3",
", 	c #26A2D2",
"' 	c #26A1D1",
") 	c #29A2D1",
"! 	c #6ECDE7",
"~ 	c #6AC9E6",
"{ 	c #B3DEED",
"] 	c #A1D2E4",
"^ 	c #A1D1E4",
"/ 	c #A1D1E3",
"( 	c #A1D0E3",
"_ 	c #B5DDEB",
": 	c #5DB8DB",
"< 	c #077EC1",
"[ 	c #8FC7DE",
"} 	c #98CDDF",
"| 	c #90B3BE",
"1 	c #90B1BD",
"2 	c #A5D3E3",
"3 	c #0567AE",
"4 	c #0175BB",
"5 	c #84C1DA",
"6 	c #8DC8DC",
"7 	c #95C2D1",
"8 	c #E3E3E3",
"9 	c #E5E5E5",
"0 	c #95C0CE",
"a 	c #9DD0E1",
"b 	c #015EA8",
"c 	c #0172B8",
"d 	c #79BCD6",
"e 	c #82C3D8",
"f 	c #82C2D8",
"g 	c #98C4D3",
"h 	c #EEEEEE",
"i 	c #98C1CE",
"j 	c #96CCDE",
"k 	c #015AA4",
"l 	c #006DB4",
"m 	c #6EB6D2",
"n 	c #76BDD5",
"o 	c #92C2D2",
"p 	c #EFEFEF",
"q 	c #94C0CF",
"r 	c #8EC8DC",
"s 	c #0056A1",
"t 	c #006AB1",
"u 	c #64B0CF",
"v 	c #6BB8D1",
"w 	c #6AB8D1",
"x 	c #8CC0D2",
"y 	c #EDEDED",
"z 	c #8FC0D0",
"A 	c #86C4D9",
"B 	c #00529D",
"C 	c #0066AE",
"D 	c #5AABCB",
"E 	c #5FB2CD",
"F 	c #5FB2CE",
"G 	c #5FB4D0",
"H 	c #5FB6D1",
"I 	c #84BFD2",
"J 	c #E7E7E7",
"K 	c #89C0D1",
"L 	c #7FC1D7",
"M 	c #024F9B",
"N 	c #0062AA",
"O 	c #52A7C8",
"P 	c #54ACCA",
"Q 	c #54ABC8",
"R 	c #54A7C3",
"S 	c #54B0CE",
"T 	c #54B3D0",
"U 	c #54B5D2",
"V 	c #7CBED2",
"W 	c #E0E0E0",
"X 	c #82C0D2",
"Y 	c #54A9C5",
"Z 	c #54ACC9",
"` 	c #69B7D1",
" .	c #6FB9D2",
"..	c #034D98",
"+.	c #015EA7",
"@.	c #3598BF",
"#.	c #40A3C3",
"$.	c #A2B6BC",
"%.	c #C8C9CA",
"&.	c #6FA8BA",
"*.	c #48B1D1",
"=.	c #48B4D3",
"-.	c #74BED3",
";.	c #D9D9D9",
">.	c #7CC0D3",
",.	c #54B9D6",
"'.	c #59B9D5",
").	c #71ABBD",
"!.	c #C4C6C6",
"~.	c #ACB9BE",
"{.	c #138CB4",
"].	c #0787B2",
"^.	c #054A95",
"/.	c #0C84B2",
"(.	c #0A89B3",
"_.	c #ECEEEF",
":.	c #F0F0F0",
"<.	c #DFDFDF",
"[.	c #5BA3B7",
"}.	c #1DA7CE",
"|.	c #58B6D0",
"1.	c #D3D3D3",
"2.	c #5DB6CF",
"3.	c #0CA1CA",
"4.	c #3A98B2",
"5.	c #DADBDB",
"6.	c #EDEEEE",
"7.	c #128BB4",
"8.	c #0989B3",
"9.	c #064793",
"0.	c #0157A1",
"a.	c #0E86B3",
"b.	c #0087B3",
"c.	c #64B7D2",
"d.	c #F0F0F1",
"e.	c #ECECEC",
"f.	c #D8D8D8",
"g.	c #429CB5",
"h.	c #44B3D0",
"i.	c #D0D0D0",
"j.	c #4EB5D0",
"k.	c #399BB6",
"l.	c #D3D4D5",
"m.	c #6FBCD4",
"n.	c #0B8AB4",
"o.	c #074590",
"p.	c #01549E",
"q.	c #1088B4",
"r.	c #0089B5",
"s.	c #008FBB",
"t.	c #65BDD7",
"u.	c #E6E6E6",
"v.	c #81AFBA",
"w.	c #D4D4D4",
"x.	c #82B0BC",
"y.	c #CECFD0",
"z.	c #70C1D9",
"A.	c #0D8CB5",
"B.	c #08428E",
"C.	c #02509B",
"D.	c #128BB6",
"E.	c #008AB6",
"F.	c #0091BD",
"G.	c #0097C3",
"H.	c #64C1DB",
"I.	c #E9EAEA",
"J.	c #DEDEDE",
"K.	c #DBDBDB",
"L.	c #DDDDDD",
"M.	c #E9E9E9",
"N.	c #6FC4DC",
"O.	c #0098C3",
"P.	c #008BB7",
"Q.	c #0E8EB7",
"R.	c #09408C",
"S.	c #024D98",
"T.	c #148DB8",
"U.	c #0092BD",
"V.	c #0098C4",
"W.	c #009FCA",
"X.	c #64C5DF",
"Y.	c #E2E2E2",
"Z.	c #E4E4E4",
"`.	c #6EC8DF",
" +	c #009FCB",
".+	c #0099C4",
"++	c #0092BE",
"@+	c #0F90B8",
"#+	c #093E8A",
"$+	c #024A95",
"%+	c #158FB9",
"&+	c #009ECA",
"*+	c #00A5D0",
"=+	c #64C9E2",
"-+	c #EBECEC",
";+	c #EAEAEA",
">+	c #6ECBE3",
",+	c #00A5D1",
"'+	c #1091B9",
")+	c #0A3F8A",
"!+	c #024692",
"~+	c #1691BA",
"{+	c #0090BC",
"]+	c #0097C2",
"^+	c #009DC8",
"/+	c #00A3CE",
"(+	c #00A8D4",
"_+	c #65CBE4",
":+	c #EFF0F0",
"<+	c #6FCDE5",
"[+	c #00A9D4",
"}+	c #00A3CF",
"|+	c #009DC9",
"1+	c #0091BC",
"2+	c #1092B9",
"3+	c #0A408B",
"4+	c #064690",
"5+	c #1793BA",
"6+	c #0088B4",
"7+	c #008EBA",
"8+	c #0094C0",
"9+	c #009AC6",
"0+	c #00A4D0",
"a+	c #00A8D3",
"b+	c #37BBDD",
"c+	c #3ABDDE",
"d+	c #00A0CB",
"e+	c #1293BA",
"f+	c #0B408B",
"g+	c #225B9C",
"h+	c #3D8CB8",
"i+	c #188FB9",
"j+	c #1894BD",
"k+	c #1897C1",
"l+	c #189BC4",
"m+	c #189EC8",
"n+	c #18A1CB",
"o+	c #18A3CD",
"p+	c #18A5CE",
"q+	c #18A4CE",
"r+	c #18A1CA",
"s+	c #189EC7",
"t+	c #1897C0",
"u+	c #1893BC",
"v+	c #188FB8",
"w+	c #2F82B1",
"x+	c #0C408A",
"y+	c #195095",
"z+	c #013885",
"A+	c #003684",
"B+	c #003583",
"C+	c #003483",
"D+	c #003482",
"E+	c #003382",
"F+	c #003281",
"G+	c #003180",
"H+	c #003080",
"I+	c #023281",
"J+	c #0C3F89",
"                                            ",
"    . + @ # # $ $ % & * = - ; > , ' ) !     ",
"  ~ { ] ] ] ] ] ] ] ^ ^ / / / / ( ( ( _ :   ",
"  < [ } } } } } } } | 1 } } } } } } } 2 3   ",
"  4 5 6 6 6 6 6 6 7 8 9 0 6 6 6 6 6 6 a b   ",
"  c d e f e e e e g h h i e e f e e e j k   ",
"  l m n n n n n n o p p q n n n n n n r s   ",
"  t u v w w w v w x y y z w v w w w v A B   ",
"  C D E E E F G H I J J K H G F E E E L M   ",
"  N O P Q R S T U V W W X U T S Y Z `  ...  ",
"  +.@.#.$.%.&.*.=.-.;.;.>.,.'.).!.~.{.].^.  ",
"  k /.(._.:.<.[.}.|.1.1.2.3.4.5.:.6.7.8.9.  ",
"  0.a.b.c.d.e.f.g.h.i.i.j.k.l.e.:.m.b.n.o.  ",
"  p.q.r.s.t.6.u.1.v.w.w.x.y.u.y z.s.r.A.B.  ",
"  C.D.E.F.G.H.I.8 J.K.K.L.8 M.N.O.F.P.Q.R.  ",
"  S.T.P.U.V.W.X.I.9 Y.Y.Z.M.`. +.+++P.@+#+  ",
"  $+%+P.F.V.&+*+=+-+;+M.-+>+,+W.V.U.P.'+)+  ",
"  !+~+E.{+]+^+/+(+_+:+:.<+[+}+|+G.1+E.2+3+  ",
"  4+5+6+7+8+9+ +0+a+b+c+(+0+d+9+8+7+6+e+f+  ",
"  g+h+i+j+k+l+m+n+o+p+q+o+r+s+l+t+u+v+w+x+  ",
"    y+z+A+A+B+C+D+E+F+G+H+H+H+H+H+H+I+J+    ",
"                                            "};
